<svg width="212" height="40" viewBox="0 0 212 40" fill="none" xmlns="http://www.w3.org/2000/svg">
<path d="M28.2265 12.087C28.2732 11.3937 28.0599 10.7603 27.7532 10.1603C27.5332 9.72034 27.2199 9.34034 26.8399 9.02701C26.5732 8.80701 26.2665 8.63368 25.9532 8.48034C25.5199 8.27368 25.0599 8.20701 24.5865 8.16701C24.0799 8.12034 23.5799 8.18701 23.1065 8.34701C22.7332 8.46701 22.3799 8.64034 22.0665 8.89368C21.8865 9.04034 21.7065 9.19368 21.5399 9.35368C21.4465 9.44701 21.3532 9.54701 21.2732 9.65368C21.0532 9.96034 20.8532 10.287 20.6865 10.627C20.4799 11.047 20.3999 11.4937 20.2732 11.9337C20.2465 12.027 20.2065 12.1137 20.1665 12.1937C20.0199 12.487 19.7465 12.407 19.5799 12.247C19.5399 12.207 19.4999 12.1603 19.4665 12.1203C19.3265 11.9337 19.1399 11.9203 18.9332 11.9803C18.7732 12.027 18.6199 12.0803 18.4665 12.1403C18.1399 12.2737 17.9799 12.1737 17.8132 11.9403C17.7465 11.8403 17.6799 11.7403 17.5999 11.647C17.4532 11.4803 17.2199 11.3937 16.9799 11.5203C16.8399 11.5937 16.6665 11.6203 16.5065 11.647C16.2599 11.687 15.9999 11.707 15.7532 11.747C15.5665 11.7737 15.3865 11.747 15.2199 11.6603C14.9199 11.507 14.9132 11.147 15.1865 10.9537C15.5399 10.707 15.9265 10.5337 16.2999 10.3337C16.7332 10.107 17.1399 9.85368 17.4265 9.44701C17.5132 9.32701 17.5732 9.19368 17.6399 9.06701C17.7332 8.89368 17.8132 8.71368 17.9132 8.54701C18.0732 8.29368 18.2399 8.04701 18.4132 7.80701C18.6199 7.52034 18.8732 7.26701 19.1465 7.03368C19.4465 6.77368 19.7865 6.55368 20.1132 6.32701C20.5599 6.02034 21.0599 5.81368 21.5532 5.59368C21.8265 5.47368 22.1065 5.37368 22.3865 5.26701C22.7132 5.14034 22.9332 4.90701 23.0799 4.59368C23.1465 4.45368 23.2465 4.32034 23.3199 4.18701C23.4532 3.94034 23.6265 3.72034 23.7932 3.50034C23.8999 3.36034 24.0265 3.24034 24.1799 3.17368C24.4199 3.07368 24.5999 3.10701 24.6599 3.38034C24.7265 3.68701 24.8065 3.98701 24.8399 4.29368C24.8799 4.62034 25.0732 4.80701 25.3265 4.95368C25.4199 5.00701 25.5265 5.04034 25.6265 5.06701C25.9132 5.14701 26.1999 5.22034 26.4799 5.33368C26.8599 5.49368 27.2399 5.64034 27.6065 5.84034C28.1132 6.11368 28.5865 6.42701 29.0399 6.78034C29.4332 7.08701 29.7865 7.43368 30.1132 7.80701C30.5399 8.30034 30.8999 8.84701 31.1665 9.45368C31.4332 10.0537 31.6065 10.6737 31.6799 11.3203C31.7199 11.707 31.7399 12.0937 31.7199 12.4803C31.6932 12.9737 31.6065 13.4603 31.4799 13.9403C31.3599 14.3803 31.1799 14.7937 30.9932 15.2003C30.8332 15.5403 30.6132 15.8603 30.3999 16.1737C30.1799 16.487 29.9465 16.787 29.6999 17.0737C29.5065 17.3003 29.2865 17.5003 29.0732 17.707C28.8665 17.907 28.6599 18.107 28.4399 18.2803C28.1399 18.5203 27.8132 18.7337 27.5132 18.9737C27.3599 19.0937 27.2132 19.227 27.0865 19.3803C26.9065 19.5937 26.9065 19.847 27.0199 20.0937C27.2132 20.5337 27.4532 20.947 27.7265 21.3337C27.9265 21.6137 28.1599 21.8803 28.4065 22.127C28.7199 22.447 29.0732 22.7137 29.4599 22.9403C29.9532 23.2337 30.4865 23.387 31.0465 23.5003C31.6332 23.6137 32.1932 23.527 32.7532 23.3737C33.1999 23.2537 33.5932 23.0337 33.9465 22.7537C34.4532 22.3603 34.8665 21.8803 35.1599 21.307C35.3132 21.007 35.4399 20.7003 35.5332 20.3737C35.6465 19.9803 35.6865 19.5803 35.6865 19.167C35.6865 18.767 35.6199 18.387 35.5265 18.0003C35.4132 17.547 35.1932 17.147 34.9332 16.7737C34.7465 16.507 34.5132 16.267 34.2665 16.047C34.0399 15.8403 33.7732 15.6937 33.5132 15.5337C33.3532 15.4337 33.1665 15.3737 32.9865 15.3137C32.8332 15.2603 32.6732 15.2137 32.5065 15.1803C32.3399 15.147 32.2465 15.047 32.2132 14.8937C32.1799 14.747 32.2399 14.6337 32.3532 14.5403C32.5465 14.3937 32.5532 14.2003 32.4865 13.9937C32.4732 13.9603 32.4532 13.927 32.4465 13.887C32.4199 13.7937 32.3932 13.7003 32.3799 13.607C32.3532 13.387 32.3799 13.187 32.5599 13.0137C32.6532 12.9203 32.7132 12.7803 32.7732 12.6537C32.8465 12.4937 32.8599 12.3203 32.8065 12.1537C32.7999 12.1203 32.7865 12.0937 32.7799 12.0603C32.7199 11.847 32.6399 11.647 32.5999 11.4203C32.5532 11.1203 32.4799 10.827 32.4932 10.5203C32.4932 10.467 32.4732 10.407 32.4732 10.3537C32.4665 10.267 32.4665 10.187 32.5532 10.1337C32.6332 10.087 32.7265 10.0937 32.8132 10.1803C32.9332 10.2937 33.0599 10.407 33.1532 10.5403C33.3799 10.8537 33.5865 11.1803 33.8065 11.507C33.8665 11.5937 33.9399 11.6803 34.0065 11.7603C34.0265 11.787 34.0532 11.8003 34.0732 11.827C34.2999 12.187 34.6599 12.3803 34.9932 12.607C35.3599 12.8603 35.7199 13.1203 36.0799 13.3803C36.4932 13.6803 36.8799 14.0203 37.2332 14.3937C37.6799 14.867 38.0665 15.3803 38.3599 15.967C38.5932 16.4337 38.8065 16.907 38.9799 17.4003C39.0332 17.5603 39.1132 17.7137 39.1799 17.8737C39.3065 18.1603 39.5265 18.3337 39.7999 18.467C40.0465 18.5803 40.2865 18.707 40.5332 18.8337C40.5999 18.867 40.6599 18.9203 40.7132 18.9737C40.7332 18.9937 40.7599 19.0203 40.7665 19.047C40.8532 19.3137 40.7332 19.5337 40.4665 19.6137C40.2265 19.6803 39.9932 19.7603 39.7465 19.807C39.4865 19.8603 39.3265 20.027 39.2332 20.247C39.0932 20.587 38.9865 20.9403 38.8665 21.287C38.7865 21.5137 38.6865 21.7337 38.6065 21.9603C38.4732 22.347 38.2665 22.6937 38.0665 23.047C37.8465 23.4337 37.5799 23.7937 37.2932 24.1337C36.6599 24.8803 35.8999 25.467 35.0332 25.9137C34.8799 25.9937 34.7199 26.0537 34.5599 26.1137C34.3265 26.2003 34.0999 26.2937 33.8599 26.3603C33.3932 26.487 32.9132 26.5537 32.4332 26.5937C32.2199 26.607 31.9999 26.6203 31.7865 26.6203C31.2999 26.6203 30.8265 26.5603 30.3465 26.4737C29.7199 26.367 29.1332 26.147 28.5665 25.867C28.2465 25.707 27.9199 25.5337 27.6199 25.3403C27.3665 25.1737 27.1399 24.967 26.9065 24.7737C26.6799 24.5803 26.4465 24.3937 26.2465 24.1803C25.9865 23.907 25.7532 23.6137 25.5199 23.3203C25.3799 23.147 25.2665 22.9537 25.1265 22.787C24.9465 22.567 24.7532 22.367 24.4599 22.307C24.2732 22.2737 24.1065 22.307 23.9532 22.4003C23.8532 22.4603 23.7599 22.5203 23.6665 22.587C23.1799 22.9337 22.6932 23.2803 22.2665 23.7003C21.8132 24.1403 21.4265 24.6403 21.1732 25.227C20.9199 25.8137 20.7732 26.427 20.7665 27.0737C20.7599 27.4603 20.7732 27.8337 20.8799 28.207C20.9799 28.5537 21.1399 28.8803 21.3132 29.2003C21.4599 29.4737 21.6665 29.7003 21.8732 29.9203C22.2465 30.3203 22.6999 30.6203 23.2132 30.807C23.8999 31.0603 24.6199 31.1603 25.3532 31.0137C25.7665 30.9337 26.1532 30.7803 26.5132 30.5537C26.9132 30.3003 27.2599 29.9937 27.5732 29.6403C27.8132 29.367 28.0199 29.067 28.1999 28.7537C28.4265 28.3603 28.6199 27.9403 28.7332 27.4937C28.7599 27.3803 28.7932 27.2737 28.8332 27.167C28.9199 26.9203 29.1932 26.867 29.3599 27.067C29.4732 27.2003 29.5799 27.347 29.6799 27.4937C29.8399 27.7203 30.0199 27.7737 30.2732 27.6403C30.4065 27.5737 30.5399 27.507 30.6999 27.507C30.8732 27.5003 31.0065 27.5603 31.1265 27.6737C31.2332 27.7737 31.3332 27.8803 31.4332 27.987C31.5332 28.1003 31.6465 28.1337 31.7932 28.1137C32.1199 28.0737 32.4065 27.907 32.7132 27.807C32.9199 27.7403 33.1199 27.6603 33.3465 27.6737C33.3799 27.6737 33.4132 27.6737 33.4399 27.6803C33.6199 27.7203 33.6732 27.8537 33.5532 27.987C33.4265 28.127 33.2799 28.247 33.1332 28.3737C32.8999 28.5737 32.6599 28.7737 32.4265 28.9737C32.3599 29.0337 32.2865 29.0803 32.2265 29.147C32.1265 29.247 32.0265 29.3603 31.9265 29.467C31.7065 29.7003 31.5265 29.967 31.3599 30.2537C31.2065 30.5137 31.0199 30.7603 30.8399 31.007C30.6532 31.2603 30.4665 31.507 30.2732 31.747C29.9265 32.1603 29.5199 32.5203 29.0865 32.847C28.7199 33.1203 28.3132 33.3337 27.9132 33.5403C27.8332 33.5803 27.7465 33.607 27.6665 33.6337C27.2665 33.767 26.8599 33.8937 26.4599 34.0403C26.1332 34.1603 25.8665 34.347 25.7399 34.6937C25.6132 35.0337 25.4199 35.3403 25.2132 35.6403C25.1265 35.7737 24.9865 35.8803 24.8465 35.9737C24.6932 36.0803 24.5065 36.0203 24.4465 35.8403C24.3932 35.687 24.3599 35.5203 24.3399 35.3603C24.3199 35.1337 24.2799 34.9203 24.1732 34.7203C24.0732 34.527 23.9132 34.3937 23.7399 34.2737C23.4932 34.107 23.2065 34.0403 22.9199 33.987C22.6465 33.9403 22.3799 33.867 22.1199 33.747C21.9065 33.647 21.6799 33.5737 21.4665 33.4737C21.2399 33.3603 21.0132 33.2403 20.7999 33.107C20.3132 32.8137 19.8865 32.447 19.4665 32.0603C19.2932 31.9003 19.1465 31.7003 18.9932 31.5203C18.8465 31.347 18.6999 31.1737 18.5732 30.987C18.3532 30.6603 18.1599 30.3203 17.9799 29.967C17.7999 29.607 17.6732 29.2337 17.5599 28.847C17.4999 28.627 17.4199 28.407 17.3799 28.187C17.3332 27.9403 17.3065 27.687 17.2932 27.4337C17.2732 27.1203 17.2532 26.807 17.2665 26.5003C17.2932 26.0337 17.2999 25.5603 17.4599 25.107C17.5865 24.7537 17.6665 24.387 17.8532 24.0537C18.0532 23.6803 18.2665 23.3137 18.5332 22.9737C18.9665 22.4137 19.4732 21.927 20.0065 21.4603C20.2132 21.2803 20.4332 21.1137 20.6332 20.9337C20.9465 20.6537 21.2599 20.3737 21.5532 20.0803C21.6999 19.9337 21.7932 19.7537 21.7732 19.5337C21.7665 19.4737 21.7665 19.4203 21.7732 19.3603C21.8132 19.0603 21.6732 18.827 21.4932 18.6137C21.2799 18.3537 21.0465 18.107 20.8465 17.8403C20.5265 17.407 20.1399 17.0403 19.7399 16.7003C19.4532 16.4603 19.1399 16.2603 18.7999 16.087C18.1932 15.7803 17.5465 15.707 16.8865 15.747C16.4332 15.7737 15.9999 15.8803 15.5865 16.0803C15.1065 16.307 14.6932 16.607 14.3399 16.9937C14.0065 17.3603 13.7465 17.7803 13.5665 18.2537C13.4465 18.587 13.3265 18.9137 13.2932 19.2603C13.2532 19.587 13.2332 19.9137 13.2532 20.247C13.2799 20.587 13.2932 20.9337 13.3732 21.267C13.5332 21.9403 13.7932 22.5537 14.3065 23.047C14.4799 23.2137 14.6732 23.3403 14.8732 23.467C15.2599 23.7137 15.6999 23.8137 16.1332 23.9337C16.1665 23.9403 16.1932 23.947 16.2265 23.9603C16.5265 24.0403 16.5999 24.267 16.4065 24.507C16.1865 24.7803 16.1799 24.9003 16.3465 25.2137C16.5065 25.507 16.5332 25.8003 16.3665 26.107C16.3065 26.2137 16.2532 26.3203 16.2065 26.4337C16.0932 26.7003 16.1465 26.9537 16.2465 27.207C16.2999 27.3403 16.3265 27.487 16.3599 27.627C16.3799 27.7003 16.3799 27.7803 16.4132 27.847C16.5532 28.167 16.5532 28.5003 16.5599 28.8403C16.5599 28.8937 16.5332 28.987 16.4999 29.0003C16.4332 29.0203 16.3399 29.0203 16.2865 28.9803C16.1732 28.8937 16.0599 28.787 15.9865 28.667C15.7332 28.2603 15.4465 27.8803 15.1199 27.5403C14.8932 27.3003 14.6332 27.0937 14.3799 26.887C14.0932 26.6537 13.7932 26.4403 13.5065 26.2137C13.1932 25.967 12.8799 25.7137 12.5865 25.447C12.3199 25.207 12.0732 24.9403 11.8265 24.6737C11.4199 24.2403 11.0999 23.747 10.8265 23.2203C10.7332 23.047 10.6465 22.867 10.5599 22.6937C10.4732 22.5203 10.4065 22.3337 10.3065 22.1603C10.1665 21.907 10.0799 21.6337 9.97987 21.367C9.91321 21.187 9.83321 21.0137 9.73321 20.847C9.69321 20.7737 9.61321 20.7137 9.53321 20.6803C9.19987 20.5137 8.84654 20.3737 8.51987 20.2003C8.19987 20.0337 7.87987 19.8603 7.67987 19.5337C7.59321 19.387 7.52654 19.2403 7.54654 19.067C7.55321 18.967 7.54654 18.8603 7.54654 18.7603C7.55321 18.6537 7.59321 18.607 7.69987 18.607C7.77987 18.607 7.87321 18.6003 7.94654 18.6337C8.39321 18.827 8.86654 18.8203 9.33321 18.807C9.51321 18.8003 9.65987 18.707 9.77987 18.5803C9.93987 18.407 10.0265 18.2003 10.0932 17.9803C10.1599 17.7537 10.2265 17.527 10.3265 17.3137C10.5132 16.8937 10.7199 16.487 10.9932 16.1203C11.1665 15.887 11.3265 15.6403 11.5199 15.427C11.7132 15.2003 11.9465 15.0137 12.1465 14.7937C12.3332 14.587 12.5465 14.427 12.7732 14.267C12.9799 14.1203 13.1865 13.9737 13.3999 13.8337C13.7732 13.5937 14.1865 13.427 14.5999 13.2537C14.9599 13.107 15.3399 13.0337 15.7199 12.9603C15.9799 12.907 16.2465 12.8603 16.5065 12.8403C17.0199 12.7937 17.5332 12.787 18.0465 12.8737C18.5532 12.9603 19.0599 13.0337 19.5465 13.2137C20.0865 13.4137 20.6132 13.6337 21.0865 13.9537C21.4065 14.1737 21.7332 14.3803 22.0332 14.6203C22.2865 14.8203 22.5132 15.0537 22.7399 15.2803C23.0532 15.5937 23.3399 15.9337 23.5999 16.3003C23.7265 16.4803 23.8599 16.6603 23.9932 16.8337C24.2999 17.2403 24.9065 17.2803 25.2599 16.9003C25.5065 16.6337 25.7932 16.4137 26.0532 16.1603C26.2399 15.9803 26.4199 15.7937 26.5932 15.6003C26.7932 15.387 26.9865 15.167 27.1665 14.9403C27.3265 14.7403 27.4599 14.527 27.5999 14.3203C27.6732 14.207 27.7532 14.1003 27.8132 13.9803C28.0799 13.367 28.2599 12.747 28.2265 12.087Z" fill="#666666"/>
<path d="M88.3813 12.4597C88.1946 12.3864 88.0079 12.2531 87.8146 12.2464C86.5613 12.1931 85.3079 12.1531 84.1146 12.6864C83.2813 13.0597 82.3946 13.1864 81.4946 13.1531C79.8813 13.0931 78.8613 11.2597 79.6679 9.85974C80.2079 8.91974 81.0279 8.42641 82.1279 8.41308C83.6346 8.39974 85.1479 8.48641 86.6413 8.31974C89.2546 8.02641 91.8613 8.27974 94.4679 8.19308C95.2879 8.16641 96.1079 8.01308 96.9213 8.01974C97.9879 8.02641 99.0613 8.09308 100.128 8.20641C101.581 8.35974 103.008 8.65308 104.388 9.20641C105.268 9.55974 105.741 10.4464 104.808 11.3931C103.928 12.2731 102.895 12.6464 101.688 12.4797C100.775 12.3531 99.8679 12.1131 98.9546 11.9597C98.0079 11.8064 97.0479 11.6931 96.0946 11.5797C95.9213 11.5597 95.6946 11.5464 95.5746 11.6397C95.3946 11.7731 95.2079 11.9864 95.1746 12.1864C95.1546 12.3064 95.4079 12.5464 95.5813 12.5931C95.8479 12.6731 96.1479 12.6264 96.4346 12.6531C96.9679 12.7064 97.5079 12.7197 98.0213 12.8464C99.0346 13.0931 99.4613 13.6264 99.5613 14.6464C99.6013 15.0397 99.6213 15.4331 99.6346 15.8264C99.6879 18.5464 99.7413 21.2664 99.7813 23.9864C99.8079 25.5597 99.2146 27.0064 98.6946 28.4397C98.2679 29.6131 96.8013 30.1131 95.8479 29.3997C94.5213 28.3997 93.0879 28.6197 91.6346 28.7264C91.2413 28.7531 90.8546 28.8797 90.4679 28.8664C89.6946 28.8397 88.9813 29.0131 88.2813 29.3131C87.8546 29.4931 87.4079 29.6397 86.9613 29.7664C85.8479 30.0864 85.2679 29.8397 84.8146 28.7731C84.2613 27.4731 84.0613 26.0864 84.0946 24.6797C84.1346 22.9997 84.2546 21.3264 84.2813 19.6464C84.2946 18.7931 84.2079 17.9331 84.1213 17.0864C83.9746 15.6064 84.9746 13.9864 86.3946 13.4931C86.8013 13.3531 87.2146 13.2531 87.6213 13.1131C87.9013 13.0131 88.1679 12.8731 88.4413 12.7531C88.4079 12.6531 88.3946 12.5531 88.3813 12.4597ZM92.0013 20.6264C92.6746 21.0064 93.4079 21.3064 93.9879 21.7797C94.9546 22.5731 94.6746 23.3064 93.8013 23.8597C92.3413 24.7797 90.7346 24.6397 89.1346 24.2531C89.1013 24.2464 89.0679 24.2264 89.0413 24.2064C88.5813 23.8197 87.9879 23.4797 87.9813 22.8131C87.9746 22.1397 88.4613 21.7331 89.0413 21.4464C89.2346 21.3464 89.4146 21.2131 89.6013 21.0931C89.3413 20.9864 89.1346 21.0264 88.9346 21.0397C88.6813 21.0531 88.4346 21.0331 88.1813 21.0597C87.5013 21.1197 87.1279 21.5331 87.1879 22.1931C87.2546 22.8997 87.3546 23.6064 87.4879 24.3064C87.6746 25.3131 87.7346 25.3797 88.7479 25.3464C89.9613 25.3131 91.1746 25.1931 92.3879 25.1464C92.9946 25.1264 93.6013 25.1997 94.2146 25.2064C95.0746 25.2131 95.2946 25.1397 95.4546 24.3397C95.6413 23.4064 95.6413 22.4331 95.7079 21.4797C95.7479 20.8864 95.4013 20.6331 94.8479 20.6264C93.8746 20.6197 92.9213 20.6264 92.0013 20.6264ZM95.7346 16.5331C95.5813 16.4197 95.3346 16.0931 95.0746 16.0864C94.7013 16.0731 94.4546 16.3997 94.4746 16.8197C94.4946 17.2197 94.6813 17.5131 95.0946 17.5664C95.4146 17.6064 95.7613 17.1331 95.7346 16.5331ZM88.3013 16.8797C87.8546 16.8064 87.4346 16.6931 87.3879 17.2731C87.3746 17.4397 87.5813 17.7664 87.7213 17.7797C88.3279 17.8664 88.4013 17.4664 88.3013 16.8797ZM91.7746 16.5331C91.7079 16.4664 91.5546 16.1731 91.3613 16.1464C90.9679 16.0931 90.9079 16.4597 90.9613 16.7397C91.0079 16.9797 91.1546 17.3664 91.3079 17.3864C91.7413 17.4597 91.7879 17.0931 91.7746 16.5331ZM92.3013 12.1797C91.9546 11.9464 91.7013 11.6797 91.6079 11.7264C91.3679 11.8531 91.1946 12.1197 90.9946 12.3264C91.1746 12.4531 91.3746 12.6931 91.5346 12.6731C91.7546 12.6464 91.9479 12.4197 92.3013 12.1797Z" fill="#666666"/>
<path d="M187.161 22.9996C186.534 22.913 186.054 22.8463 185.441 22.7596C185.381 23.6596 185.307 24.4663 185.287 25.273C185.274 26.133 185.334 26.993 185.327 27.853C185.321 28.2796 185.287 28.713 185.181 29.1263C184.974 29.8996 184.607 30.1663 183.894 30.1663C183.314 30.1663 182.701 29.7463 182.534 29.153C182.421 28.7463 182.381 28.3063 182.347 27.8796C182.261 26.813 182.201 25.7396 182.107 24.673C182.087 24.4796 181.974 24.293 181.881 24.0396C181.134 24.473 180.774 25.133 180.421 25.773C179.867 26.7796 179.054 27.5063 178.121 28.1263C177.974 28.2263 177.814 28.353 177.647 28.3663C177.381 28.393 177.007 28.433 176.854 28.2863C176.701 28.1396 176.641 27.7196 176.741 27.513C177.107 26.7396 177.474 25.9463 177.994 25.2796C179.307 23.6063 180.374 21.7863 181.394 19.9396C181.494 19.753 181.581 19.553 181.641 19.3463C181.674 19.2196 181.647 19.073 181.647 18.8396C181.101 18.8396 180.581 18.8396 180.067 18.8396C179.607 18.8396 179.134 18.8796 178.687 18.813C178.107 18.7196 177.527 18.5063 177.427 17.8263C177.314 17.0596 177.387 16.2996 178.094 15.793C178.934 15.193 179.881 14.8996 180.907 14.8863C181.481 14.8796 182.061 14.913 182.627 14.8796C183.407 14.833 184.187 14.7463 184.967 14.673C185.861 14.5863 186.747 14.4863 187.614 14.8596C188.367 15.1863 188.614 15.6663 188.214 16.3796C187.901 16.933 187.467 17.4263 187.041 17.9063C186.427 18.593 186.447 18.9196 187.194 19.4396C187.487 19.6463 187.747 19.893 188.047 20.0863C188.687 20.5063 189.061 21.0796 189.067 21.8796C190.214 22.173 191.234 21.853 192.247 21.5063C192.647 21.3663 192.894 20.5463 192.754 20.1063C192.607 19.6396 192.261 19.453 191.654 19.5196C191.334 19.553 191.014 19.613 190.694 19.6196C189.841 19.633 189.421 19.313 189.207 18.5263C188.981 17.6796 189.154 17.0463 189.854 16.713C190.587 16.3663 191.374 16.093 192.154 15.8863C192.887 15.693 193.061 15.6063 193.094 14.8463C193.121 14.2396 193.141 13.613 193.014 13.0263C192.821 12.0996 193.307 11.533 193.901 10.993C194.081 10.8263 194.314 10.7063 194.534 10.593C195.561 10.0596 196.154 10.273 196.534 11.353C196.801 12.1263 196.974 12.933 196.727 13.7596C196.647 14.033 196.574 14.3196 196.561 14.5996C196.514 15.4196 196.821 15.7196 197.634 15.673C197.954 15.653 198.274 15.593 198.587 15.533C199.754 15.3063 201.134 16.613 200.841 18.1263C200.721 18.7463 200.274 19.0596 199.747 19.1863C198.954 19.373 198.134 19.4463 197.321 19.553C197.041 19.593 196.754 19.6063 196.414 19.633C196.314 19.9463 196.181 20.2396 196.141 20.5463C196.067 21.2196 196.354 21.533 197.047 21.5596C199.014 21.6396 200.981 21.693 202.947 21.7863C204.194 21.8396 205.094 22.5196 205.747 23.5196C206.154 24.1396 206.047 24.6463 205.527 25.1596C204.554 26.1263 203.361 26.1996 202.127 25.893C200.347 25.4463 198.554 25.1263 196.714 25.2463C195.614 25.3196 194.527 25.5996 193.434 25.6396C191.921 25.693 190.447 25.9396 189.001 26.3596C188.407 26.533 187.814 26.733 187.307 26.1663C186.721 25.5063 186.447 24.7663 186.761 23.893C186.847 23.6463 186.967 23.4263 187.161 22.9996Z" fill="#666666"/>
<path d="M116.634 15.5394C116.187 15.6728 115.894 15.7661 115.587 15.8461C114.7 16.0928 113.774 15.6461 113.474 14.8328C113.12 13.8528 113.5 12.8861 114.434 12.5261C115.607 12.0794 116.834 11.8261 118.094 11.8328C118.38 11.8328 118.667 11.8528 118.954 11.8128C120.14 11.6594 120.18 11.5661 120.247 10.3728C120.3 9.41944 120.787 8.59278 121.387 7.89278C121.947 7.24611 123.06 7.41944 123.507 8.19944C123.82 8.74611 124.034 9.37278 124.174 9.98611C124.507 11.4261 124.7 11.6128 126.207 11.5261C126.74 11.4928 127.274 11.4328 127.8 11.3661C128.707 11.2461 129.514 11.5461 130.254 11.9928C131.38 12.6728 131.34 13.9728 130.22 14.6528C129.507 15.0861 128.727 15.1128 127.934 15.0661C126.5 14.9794 126.387 15.0194 125.8 16.3194C124.827 18.4661 124.934 18.5594 126.494 20.0328C128.7 22.0994 131.18 23.7928 133.887 25.1394C134.594 25.4928 135.3 25.8461 135.947 26.2928C137.02 27.0328 136.854 28.3728 135.66 28.9328C135.56 28.9794 135.467 29.0394 135.367 29.0594C133.66 29.3594 131.954 29.3794 130.254 29.0194C129.974 28.9594 129.654 28.7194 129.494 28.4728C128.18 26.4461 126.3 24.9061 124.847 23.0061C124.614 22.6994 124.3 22.4394 124 22.1928C123.24 21.5728 122.847 21.6061 122.207 22.3994C120.987 23.9128 119.614 25.2661 118.02 26.3794C116.507 27.4394 114.854 28.1861 112.954 28.2328C112.707 28.2394 112.44 28.2328 112.214 28.1528C111.64 27.9528 111.02 27.7728 110.974 26.9994C110.927 26.2194 111 25.4794 111.787 25.0461C112.547 24.6328 113.327 24.2861 114.234 24.3594C115.134 24.4328 115.927 24.1461 116.634 23.5928C117.627 22.8261 118.64 22.0928 119.614 21.3061C120.06 20.9461 120.447 20.4594 120.327 19.8328C120.207 19.2128 119.74 18.8794 119.12 18.7528C118.734 18.6728 118.36 18.5661 117.974 18.4728C116.767 18.1994 116.02 17.4794 116.54 16.2661C116.614 16.1061 116.594 15.9128 116.634 15.5394ZM120.527 15.3328C120.914 16.1994 121.5 16.3861 122.087 16.4928C122.467 16.5661 122.847 16.1728 122.88 15.7728C122.927 15.2928 122.587 15.1061 122.22 15.1128C121.707 15.1194 121.194 15.2461 120.527 15.3328Z" fill="#666666"/>
<path d="M65.7342 23.7597C67.7142 23.5997 69.3875 23.4331 71.0609 23.3464C71.7609 23.3064 72.4942 23.333 73.1809 23.4864C74.2609 23.733 74.6942 24.6464 74.1809 25.6331C73.4209 27.0997 72.3009 28.2264 70.7409 28.8597C70.6409 28.8997 70.5209 28.8864 70.4342 28.9397C69.1676 29.7464 67.8476 29.5664 66.5076 29.1597C65.2476 28.7797 63.9675 28.4464 62.7075 28.0664C61.4142 27.673 60.1276 27.2464 58.8409 26.8464C58.1942 26.6464 57.5476 26.4331 56.8876 26.2664C54.3009 25.6131 52.7475 23.2664 53.2809 20.673C53.5475 19.3864 53.9542 18.1197 54.3009 16.8464C54.3542 16.6397 54.4209 16.433 54.4609 16.2197C54.5942 15.573 54.3342 15.2664 53.6875 15.3064C53.4742 15.3197 53.2742 15.4064 53.0609 15.4464C52.0209 15.6197 51.1542 15.253 50.6476 14.4264C50.2809 13.8197 50.3809 12.7064 50.9342 12.0197C51.7542 11.0064 52.7675 10.3397 54.1342 10.2997C55.7275 10.253 57.2676 10.553 58.7876 10.9397C60.2609 11.3197 60.7075 12.8797 59.7142 14.0597C58.8542 15.0797 58.0609 16.133 57.6209 17.4064C57.3742 18.113 57.1676 18.833 57.0076 19.5664C56.7742 20.633 57.8542 21.813 58.8409 22.1864C59.7742 22.5397 60.7409 22.8331 61.7142 23.0397C63.1342 23.3597 64.5809 23.5597 65.7342 23.7597Z" fill="#666666"/>
<path d="M164.768 26.7734C163.954 26.52 163.128 26.3067 162.334 26C161.168 25.5534 160.021 25.06 158.881 24.5534C157.248 23.8334 155.801 22.8667 155.034 21.1734C154.874 20.8267 154.808 20.42 154.781 20.0334C154.668 18.2134 154.674 16.38 154.441 14.5734C154.308 13.5334 154.668 12.76 155.161 11.98C155.908 10.8 156.761 10.7334 157.734 11.7667C157.981 12.0267 158.181 12.3267 158.368 12.6334C158.661 13.1067 159.061 13.3134 159.621 13.3067C160.554 13.2934 161.481 13.3334 162.414 13.34C163.561 13.3467 164.468 14.0067 164.634 14.9667C164.781 15.7934 164.488 16.38 163.668 16.6267C162.854 16.8734 162.001 16.9934 161.161 17.1734C160.361 17.34 159.521 17.4067 158.774 17.7C157.841 18.0667 157.748 18.74 158.461 19.46C158.914 19.9134 159.421 20.3334 159.968 20.66C161.161 21.3734 162.341 22.02 163.861 21.9534C165.234 21.8934 166.628 22.2067 168.014 22.38C168.328 22.42 168.641 22.5467 168.914 22.7067C169.774 23.1867 169.888 24.04 169.194 24.76C168.001 26.0067 166.568 26.7134 164.768 26.7734Z" fill="#666666"/>
<path d="M150.114 10.3857C151.02 10.4924 151.794 10.8324 152.24 11.6591C152.687 12.4924 152.36 13.2457 151.88 13.9591C151.84 14.0191 151.794 14.0857 151.734 14.1124C149.894 15.0391 150.127 16.8391 150.06 18.4124C149.954 21.0124 150.034 23.6124 150.36 26.2057C150.454 26.9324 150.3 27.7057 150.147 28.4324C150.074 28.7857 149.774 29.1257 149.5 29.3857C149.047 29.8191 148.567 29.7657 148.074 29.3457C147.594 28.9457 147.42 28.4191 147.387 27.8324C147.26 25.4057 147.16 22.9791 147.007 20.5591C146.934 19.4591 146.794 18.3591 146.607 17.2791C146.454 16.3857 146.38 16.4057 145.487 16.3057C145.034 16.2524 144.567 16.1591 144.147 15.9791C143.307 15.6191 142.774 14.7524 142.867 13.9324C142.974 12.9991 143.287 12.2324 144.354 11.9457C145.66 11.5991 146.934 11.1057 148.234 10.7257C148.847 10.5457 149.494 10.4924 150.114 10.3857Z" fill="#666666"/>
<path d="M184.127 10.1457C185.107 10.0723 185.941 10.3323 186.707 11.099C187.367 11.759 187.221 12.9457 186.434 13.2657C184.887 13.8857 183.274 14.2057 181.621 13.739C180.861 13.5257 180.501 12.8723 180.554 12.0657C180.607 11.279 181.287 10.4857 182.074 10.319C182.454 10.239 182.847 10.1857 183.241 10.1457C183.527 10.1257 183.814 10.1457 184.127 10.1457Z" fill="#666666"/>
</svg>
