<svg width="212" height="40" viewBox="0 0 212 40" fill="none" xmlns="http://www.w3.org/2000/svg">
<path d="M28.2265 12.0865C28.2732 11.3932 28.0599 10.7599 27.7532 10.1599C27.5332 9.71986 27.2199 9.33986 26.8399 9.02652C26.5732 8.80652 26.2665 8.63319 25.9532 8.47986C25.5199 8.27319 25.0599 8.20652 24.5865 8.16652C24.0799 8.11986 23.5799 8.18652 23.1065 8.34652C22.7332 8.46652 22.3799 8.63986 22.0665 8.89319C21.8865 9.03986 21.7065 9.19319 21.5399 9.35319C21.4465 9.44652 21.3532 9.54652 21.2732 9.65319C21.0532 9.95986 20.8532 10.2865 20.6865 10.6265C20.4799 11.0465 20.3999 11.4932 20.2732 11.9332C20.2465 12.0265 20.2065 12.1132 20.1665 12.1932C20.0199 12.4865 19.7465 12.4065 19.5799 12.2465C19.5399 12.2065 19.4999 12.1599 19.4665 12.1199C19.3265 11.9332 19.1399 11.9199 18.9332 11.9799C18.7732 12.0265 18.6199 12.0799 18.4665 12.1399C18.1399 12.2732 17.9799 12.1732 17.8132 11.9399C17.7465 11.8399 17.6799 11.7399 17.5999 11.6465C17.4532 11.4799 17.2199 11.3932 16.9799 11.5199C16.8399 11.5932 16.6665 11.6199 16.5065 11.6465C16.2599 11.6865 15.9999 11.7065 15.7532 11.7465C15.5665 11.7732 15.3865 11.7465 15.2199 11.6599C14.9199 11.5065 14.9132 11.1465 15.1865 10.9532C15.5399 10.7065 15.9265 10.5332 16.2999 10.3332C16.7332 10.1065 17.1399 9.85319 17.4265 9.44652C17.5132 9.32652 17.5732 9.19319 17.6399 9.06652C17.7332 8.89319 17.8132 8.71319 17.9132 8.54652C18.0732 8.29319 18.2399 8.04652 18.4132 7.80652C18.6199 7.51986 18.8732 7.26652 19.1465 7.03319C19.4465 6.77319 19.7865 6.55319 20.1132 6.32652C20.5599 6.01986 21.0599 5.81319 21.5532 5.59319C21.8265 5.47319 22.1065 5.37319 22.3865 5.26652C22.7132 5.13986 22.9332 4.90652 23.0799 4.59319C23.1465 4.45319 23.2465 4.31986 23.3199 4.18652C23.4532 3.93986 23.6265 3.71986 23.7932 3.49986C23.8999 3.35986 24.0265 3.23986 24.1799 3.17319C24.4199 3.07319 24.5999 3.10652 24.6599 3.37986C24.7265 3.68652 24.8065 3.98652 24.8399 4.29319C24.8799 4.61986 25.0732 4.80652 25.3265 4.95319C25.4199 5.00652 25.5265 5.03986 25.6265 5.06652C25.9132 5.14652 26.1999 5.21986 26.4799 5.33319C26.8599 5.49319 27.2399 5.63986 27.6065 5.83986C28.1132 6.11319 28.5865 6.42652 29.0399 6.77986C29.4332 7.08652 29.7865 7.43319 30.1132 7.80652C30.5399 8.29986 30.8999 8.84652 31.1665 9.45319C31.4332 10.0532 31.6065 10.6732 31.6799 11.3199C31.7199 11.7065 31.7399 12.0932 31.7199 12.4799C31.6932 12.9732 31.6065 13.4599 31.4799 13.9399C31.3599 14.3799 31.1799 14.7932 30.9932 15.1999C30.8332 15.5399 30.6132 15.8599 30.3999 16.1732C30.1799 16.4865 29.9465 16.7865 29.6999 17.0732C29.5065 17.2999 29.2865 17.4999 29.0732 17.7065C28.8665 17.9065 28.6599 18.1065 28.4399 18.2799C28.1399 18.5199 27.8132 18.7332 27.5132 18.9732C27.3599 19.0932 27.2132 19.2265 27.0865 19.3799C26.9065 19.5932 26.9065 19.8465 27.0199 20.0932C27.2132 20.5332 27.4532 20.9465 27.7265 21.3332C27.9265 21.6132 28.1599 21.8799 28.4065 22.1265C28.7199 22.4465 29.0732 22.7132 29.4599 22.9399C29.9532 23.2332 30.4865 23.3865 31.0465 23.4999C31.6332 23.6132 32.1932 23.5265 32.7532 23.3732C33.1999 23.2532 33.5932 23.0332 33.9465 22.7532C34.4532 22.3599 34.8665 21.8799 35.1599 21.3065C35.3132 21.0065 35.4399 20.6999 35.5332 20.3732C35.6465 19.9799 35.6865 19.5799 35.6865 19.1665C35.6865 18.7665 35.6199 18.3865 35.5265 17.9999C35.4132 17.5465 35.1932 17.1465 34.9332 16.7732C34.7465 16.5065 34.5132 16.2665 34.2665 16.0465C34.0399 15.8399 33.7732 15.6932 33.5132 15.5332C33.3532 15.4332 33.1665 15.3732 32.9865 15.3132C32.8332 15.2599 32.6732 15.2132 32.5065 15.1799C32.3399 15.1465 32.2465 15.0465 32.2132 14.8932C32.1799 14.7465 32.2399 14.6332 32.3532 14.5399C32.5465 14.3932 32.5532 14.1999 32.4865 13.9932C32.4732 13.9599 32.4532 13.9265 32.4465 13.8865C32.4199 13.7932 32.3932 13.6999 32.3799 13.6065C32.3532 13.3865 32.3799 13.1865 32.5599 13.0132C32.6532 12.9199 32.7132 12.7799 32.7732 12.6532C32.8465 12.4932 32.8599 12.3199 32.8065 12.1532C32.7999 12.1199 32.7865 12.0932 32.7799 12.0599C32.7199 11.8465 32.6399 11.6465 32.5999 11.4199C32.5532 11.1199 32.4799 10.8265 32.4932 10.5199C32.4932 10.4665 32.4732 10.4065 32.4732 10.3532C32.4665 10.2665 32.4665 10.1865 32.5532 10.1332C32.6332 10.0865 32.7265 10.0932 32.8132 10.1799C32.9332 10.2932 33.0599 10.4065 33.1532 10.5399C33.3799 10.8532 33.5865 11.1799 33.8065 11.5065C33.8665 11.5932 33.9399 11.6799 34.0065 11.7599C34.0265 11.7865 34.0532 11.7999 34.0732 11.8265C34.2999 12.1865 34.6599 12.3799 34.9932 12.6065C35.3599 12.8599 35.7199 13.1199 36.0799 13.3799C36.4932 13.6799 36.8799 14.0199 37.2332 14.3932C37.6799 14.8665 38.0665 15.3799 38.3599 15.9665C38.5932 16.4332 38.8065 16.9065 38.9799 17.3999C39.0332 17.5599 39.1132 17.7132 39.1799 17.8732C39.3065 18.1599 39.5265 18.3332 39.7999 18.4665C40.0465 18.5799 40.2865 18.7065 40.5332 18.8332C40.5999 18.8665 40.6599 18.9199 40.7132 18.9732C40.7332 18.9932 40.7599 19.0199 40.7665 19.0465C40.8532 19.3132 40.7332 19.5332 40.4665 19.6132C40.2265 19.6799 39.9932 19.7599 39.7465 19.8065C39.4865 19.8599 39.3265 20.0265 39.2332 20.2465C39.0932 20.5865 38.9865 20.9399 38.8665 21.2865C38.7865 21.5132 38.6865 21.7332 38.6065 21.9599C38.4732 22.3465 38.2665 22.6932 38.0665 23.0465C37.8465 23.4332 37.5799 23.7932 37.2932 24.1332C36.6599 24.8799 35.8999 25.4665 35.0332 25.9132C34.8799 25.9932 34.7199 26.0532 34.5599 26.1132C34.3265 26.1999 34.0999 26.2932 33.8599 26.3599C33.3932 26.4865 32.9132 26.5532 32.4332 26.5932C32.2199 26.6065 31.9999 26.6199 31.7865 26.6199C31.2999 26.6199 30.8265 26.5599 30.3465 26.4732C29.7199 26.3665 29.1332 26.1465 28.5665 25.8665C28.2465 25.7065 27.9199 25.5332 27.6199 25.3399C27.3665 25.1732 27.1399 24.9665 26.9065 24.7732C26.6799 24.5799 26.4465 24.3932 26.2465 24.1799C25.9865 23.9065 25.7532 23.6132 25.5199 23.3199C25.3799 23.1465 25.2665 22.9532 25.1265 22.7865C24.9465 22.5665 24.7532 22.3665 24.4599 22.3065C24.2732 22.2732 24.1065 22.3065 23.9532 22.3999C23.8532 22.4599 23.7599 22.5199 23.6665 22.5865C23.1799 22.9332 22.6932 23.2799 22.2665 23.6999C21.8132 24.1399 21.4265 24.6399 21.1732 25.2265C20.9199 25.8132 20.7732 26.4265 20.7665 27.0732C20.7599 27.4599 20.7732 27.8332 20.8799 28.2065C20.9799 28.5532 21.1399 28.8799 21.3132 29.1999C21.4599 29.4732 21.6665 29.6999 21.8732 29.9199C22.2465 30.3199 22.6999 30.6199 23.2132 30.8065C23.8999 31.0599 24.6199 31.1599 25.3532 31.0132C25.7665 30.9332 26.1532 30.7799 26.5132 30.5532C26.9132 30.2999 27.2599 29.9932 27.5732 29.6399C27.8132 29.3665 28.0199 29.0665 28.1999 28.7532C28.4265 28.3599 28.6199 27.9399 28.7332 27.4932C28.7599 27.3799 28.7932 27.2732 28.8332 27.1665C28.9199 26.9199 29.1932 26.8665 29.3599 27.0665C29.4732 27.1999 29.5799 27.3465 29.6799 27.4932C29.8399 27.7199 30.0199 27.7732 30.2732 27.6399C30.4065 27.5732 30.5399 27.5065 30.6999 27.5065C30.8732 27.4999 31.0065 27.5599 31.1265 27.6732C31.2332 27.7732 31.3332 27.8799 31.4332 27.9865C31.5332 28.0999 31.6465 28.1332 31.7932 28.1132C32.1199 28.0732 32.4065 27.9065 32.7132 27.8065C32.9199 27.7399 33.1199 27.6599 33.3465 27.6732C33.3799 27.6732 33.4132 27.6732 33.4399 27.6799C33.6199 27.7199 33.6732 27.8532 33.5532 27.9865C33.4265 28.1265 33.2799 28.2465 33.1332 28.3732C32.8999 28.5732 32.6599 28.7732 32.4265 28.9732C32.3599 29.0332 32.2865 29.0799 32.2265 29.1465C32.1265 29.2465 32.0265 29.3599 31.9265 29.4665C31.7065 29.6999 31.5265 29.9665 31.3599 30.2532C31.2065 30.5132 31.0199 30.7599 30.8399 31.0065C30.6532 31.2599 30.4665 31.5065 30.2732 31.7465C29.9265 32.1599 29.5199 32.5199 29.0865 32.8465C28.7199 33.1199 28.3132 33.3332 27.9132 33.5399C27.8332 33.5799 27.7465 33.6065 27.6665 33.6332C27.2665 33.7665 26.8599 33.8932 26.4599 34.0399C26.1332 34.1599 25.8665 34.3465 25.7399 34.6932C25.6132 35.0332 25.4199 35.3399 25.2132 35.6399C25.1265 35.7732 24.9865 35.8799 24.8465 35.9732C24.6932 36.0799 24.5065 36.0199 24.4465 35.8399C24.3932 35.6865 24.3599 35.5199 24.3399 35.3599C24.3199 35.1332 24.2799 34.9199 24.1732 34.7199C24.0732 34.5265 23.9132 34.3932 23.7399 34.2732C23.4932 34.1065 23.2065 34.0399 22.9199 33.9865C22.6465 33.9399 22.3799 33.8665 22.1199 33.7465C21.9065 33.6465 21.6799 33.5732 21.4665 33.4732C21.2399 33.3599 21.0132 33.2399 20.7999 33.1065C20.3132 32.8132 19.8865 32.4465 19.4665 32.0599C19.2932 31.8999 19.1465 31.6999 18.9932 31.5199C18.8465 31.3465 18.6999 31.1732 18.5732 30.9865C18.3532 30.6599 18.1599 30.3199 17.9799 29.9665C17.7999 29.6065 17.6732 29.2332 17.5599 28.8465C17.4999 28.6265 17.4199 28.4065 17.3799 28.1865C17.3332 27.9399 17.3065 27.6865 17.2932 27.4332C17.2732 27.1199 17.2532 26.8065 17.2665 26.4999C17.2932 26.0332 17.2999 25.5599 17.4599 25.1065C17.5865 24.7532 17.6665 24.3865 17.8532 24.0532C18.0532 23.6799 18.2665 23.3132 18.5332 22.9732C18.9665 22.4132 19.4732 21.9265 20.0065 21.4599C20.2132 21.2799 20.4332 21.1132 20.6332 20.9332C20.9465 20.6532 21.2599 20.3732 21.5532 20.0799C21.6999 19.9332 21.7932 19.7532 21.7732 19.5332C21.7665 19.4732 21.7665 19.4199 21.7732 19.3599C21.8132 19.0599 21.6732 18.8265 21.4932 18.6132C21.2799 18.3532 21.0465 18.1065 20.8465 17.8399C20.5265 17.4065 20.1399 17.0399 19.7399 16.6999C19.4532 16.4599 19.1399 16.2599 18.7999 16.0865C18.1932 15.7799 17.5465 15.7065 16.8865 15.7465C16.4332 15.7732 15.9999 15.8799 15.5865 16.0799C15.1065 16.3065 14.6932 16.6065 14.3399 16.9932C14.0065 17.3599 13.7465 17.7799 13.5665 18.2532C13.4465 18.5865 13.3265 18.9132 13.2932 19.2599C13.2532 19.5865 13.2332 19.9132 13.2532 20.2465C13.2799 20.5865 13.2932 20.9332 13.3732 21.2665C13.5332 21.9399 13.7932 22.5532 14.3065 23.0465C14.4799 23.2132 14.6732 23.3399 14.8732 23.4665C15.2599 23.7132 15.6999 23.8132 16.1332 23.9332C16.1665 23.9399 16.1932 23.9465 16.2265 23.9599C16.5265 24.0399 16.5999 24.2665 16.4065 24.5065C16.1865 24.7799 16.1799 24.8999 16.3465 25.2132C16.5065 25.5065 16.5332 25.7999 16.3665 26.1065C16.3065 26.2132 16.2532 26.3199 16.2065 26.4332C16.0932 26.6999 16.1465 26.9532 16.2465 27.2065C16.2999 27.3399 16.3265 27.4865 16.3599 27.6265C16.3799 27.6999 16.3799 27.7799 16.4132 27.8465C16.5532 28.1665 16.5532 28.4999 16.5599 28.8399C16.5599 28.8932 16.5332 28.9865 16.4999 28.9999C16.4332 29.0199 16.3399 29.0199 16.2865 28.9799C16.1732 28.8932 16.0599 28.7865 15.9865 28.6665C15.7332 28.2599 15.4465 27.8799 15.1199 27.5399C14.8932 27.2999 14.6332 27.0932 14.3799 26.8865C14.0932 26.6532 13.7932 26.4399 13.5065 26.2132C13.1932 25.9665 12.8799 25.7132 12.5865 25.4465C12.3199 25.2065 12.0732 24.9399 11.8265 24.6732C11.4199 24.2399 11.0999 23.7465 10.8265 23.2199C10.7332 23.0465 10.6465 22.8665 10.5599 22.6932C10.4732 22.5199 10.4065 22.3332 10.3065 22.1599C10.1665 21.9065 10.0799 21.6332 9.97987 21.3665C9.91321 21.1865 9.83321 21.0132 9.73321 20.8465C9.69321 20.7732 9.61321 20.7132 9.53321 20.6799C9.19987 20.5132 8.84654 20.3732 8.51987 20.1999C8.19987 20.0332 7.87987 19.8599 7.67987 19.5332C7.59321 19.3865 7.52654 19.2399 7.54654 19.0665C7.55321 18.9665 7.54654 18.8599 7.54654 18.7599C7.55321 18.6532 7.59321 18.6065 7.69987 18.6065C7.77987 18.6065 7.87321 18.5999 7.94654 18.6332C8.39321 18.8265 8.86654 18.8199 9.33321 18.8065C9.51321 18.7999 9.65987 18.7065 9.77987 18.5799C9.93987 18.4065 10.0265 18.1999 10.0932 17.9799C10.1599 17.7532 10.2265 17.5265 10.3265 17.3132C10.5132 16.8932 10.7199 16.4865 10.9932 16.1199C11.1665 15.8865 11.3265 15.6399 11.5199 15.4265C11.7132 15.1999 11.9465 15.0132 12.1465 14.7932C12.3332 14.5865 12.5465 14.4265 12.7732 14.2665C12.9799 14.1199 13.1865 13.9732 13.3999 13.8332C13.7732 13.5932 14.1865 13.4265 14.5999 13.2532C14.9599 13.1065 15.3399 13.0332 15.7199 12.9599C15.9799 12.9065 16.2465 12.8599 16.5065 12.8399C17.0199 12.7932 17.5332 12.7865 18.0465 12.8732C18.5532 12.9599 19.0599 13.0332 19.5465 13.2132C20.0865 13.4132 20.6132 13.6332 21.0865 13.9532C21.4065 14.1732 21.7332 14.3799 22.0332 14.6199C22.2865 14.8199 22.5132 15.0532 22.7399 15.2799C23.0532 15.5932 23.3399 15.9332 23.5999 16.2999C23.7265 16.4799 23.8599 16.6599 23.9932 16.8332C24.2999 17.2399 24.9065 17.2799 25.2599 16.8999C25.5065 16.6332 25.7932 16.4132 26.0532 16.1599C26.2399 15.9799 26.4199 15.7932 26.5932 15.5999C26.7932 15.3865 26.9865 15.1665 27.1665 14.9399C27.3265 14.7399 27.4599 14.5265 27.5999 14.3199C27.6732 14.2065 27.7532 14.0999 27.8132 13.9799C28.0799 13.3665 28.2599 12.7465 28.2265 12.0865Z" fill="white"/>
<path d="M88.3813 12.4602C88.1946 12.3869 88.0079 12.2536 87.8146 12.2469C86.5613 12.1936 85.3079 12.1536 84.1146 12.6869C83.2813 13.0602 82.3946 13.1869 81.4946 13.1536C79.8813 13.0936 78.8613 11.2602 79.6679 9.86023C80.2079 8.92023 81.0279 8.4269 82.1279 8.41356C83.6346 8.40023 85.1479 8.4869 86.6413 8.32023C89.2546 8.0269 91.8613 8.28023 94.4679 8.19356C95.2879 8.1669 96.1079 8.01356 96.9213 8.02023C97.9879 8.0269 99.0613 8.09356 100.128 8.2069C101.581 8.36023 103.008 8.65356 104.388 9.2069C105.268 9.56023 105.741 10.4469 104.808 11.3936C103.928 12.2736 102.895 12.6469 101.688 12.4802C100.775 12.3536 99.8679 12.1136 98.9546 11.9602C98.0079 11.8069 97.0479 11.6936 96.0946 11.5802C95.9213 11.5602 95.6946 11.5469 95.5746 11.6402C95.3946 11.7736 95.2079 11.9869 95.1746 12.1869C95.1546 12.3069 95.4079 12.5469 95.5813 12.5936C95.8479 12.6736 96.1479 12.6269 96.4346 12.6536C96.9679 12.7069 97.5079 12.7202 98.0213 12.8469C99.0346 13.0936 99.4613 13.6269 99.5613 14.6469C99.6013 15.0402 99.6213 15.4336 99.6346 15.8269C99.6879 18.5469 99.7413 21.2669 99.7813 23.9869C99.8079 25.5602 99.2146 27.0069 98.6946 28.4402C98.2679 29.6136 96.8013 30.1136 95.8479 29.4002C94.5213 28.4002 93.0879 28.6202 91.6346 28.7269C91.2413 28.7536 90.8546 28.8802 90.4679 28.8669C89.6946 28.8402 88.9813 29.0136 88.2813 29.3136C87.8546 29.4936 87.4079 29.6402 86.9613 29.7669C85.8479 30.0869 85.2679 29.8402 84.8146 28.7736C84.2613 27.4736 84.0613 26.0869 84.0946 24.6802C84.1346 23.0002 84.2546 21.3269 84.2813 19.6469C84.2946 18.7936 84.2079 17.9336 84.1213 17.0869C83.9746 15.6069 84.9746 13.9869 86.3946 13.4936C86.8013 13.3536 87.2146 13.2536 87.6213 13.1136C87.9013 13.0136 88.1679 12.8736 88.4413 12.7536C88.4079 12.6536 88.3946 12.5536 88.3813 12.4602ZM92.0013 20.6269C92.6746 21.0069 93.4079 21.3069 93.9879 21.7802C94.9546 22.5736 94.6746 23.3069 93.8013 23.8602C92.3413 24.7802 90.7346 24.6402 89.1346 24.2536C89.1013 24.2469 89.0679 24.2269 89.0413 24.2069C88.5813 23.8202 87.9879 23.4802 87.9813 22.8136C87.9746 22.1402 88.4613 21.7336 89.0413 21.4469C89.2346 21.3469 89.4146 21.2136 89.6013 21.0936C89.3413 20.9869 89.1346 21.0269 88.9346 21.0402C88.6813 21.0536 88.4346 21.0336 88.1813 21.0602C87.5013 21.1202 87.1279 21.5336 87.1879 22.1936C87.2546 22.9002 87.3546 23.6069 87.4879 24.3069C87.6746 25.3136 87.7346 25.3802 88.7479 25.3469C89.9613 25.3136 91.1746 25.1936 92.3879 25.1469C92.9946 25.1269 93.6013 25.2002 94.2146 25.2069C95.0746 25.2136 95.2946 25.1402 95.4546 24.3402C95.6413 23.4069 95.6413 22.4336 95.7079 21.4802C95.7479 20.8869 95.4013 20.6336 94.8479 20.6269C93.8746 20.6202 92.9213 20.6269 92.0013 20.6269ZM95.7346 16.5336C95.5813 16.4202 95.3346 16.0936 95.0746 16.0869C94.7013 16.0736 94.4546 16.4002 94.4746 16.8202C94.4946 17.2202 94.6813 17.5136 95.0946 17.5669C95.4146 17.6069 95.7613 17.1336 95.7346 16.5336ZM88.3013 16.8802C87.8546 16.8069 87.4346 16.6936 87.3879 17.2736C87.3746 17.4402 87.5813 17.7669 87.7213 17.7802C88.3279 17.8669 88.4013 17.4669 88.3013 16.8802ZM91.7746 16.5336C91.7079 16.4669 91.5546 16.1736 91.3613 16.1469C90.9679 16.0936 90.9079 16.4602 90.9613 16.7402C91.0079 16.9802 91.1546 17.3669 91.3079 17.3869C91.7413 17.4602 91.7879 17.0936 91.7746 16.5336ZM92.3013 12.1802C91.9546 11.9469 91.7013 11.6802 91.6079 11.7269C91.3679 11.8536 91.1946 12.1202 90.9946 12.3269C91.1746 12.4536 91.3746 12.6936 91.5346 12.6736C91.7546 12.6469 91.9479 12.4202 92.3013 12.1802Z" fill="white"/>
<path d="M187.161 23.0001C186.534 22.9135 186.054 22.8468 185.441 22.7601C185.381 23.6601 185.307 24.4668 185.287 25.2735C185.274 26.1335 185.334 26.9935 185.327 27.8535C185.321 28.2801 185.287 28.7135 185.181 29.1268C184.974 29.9001 184.607 30.1668 183.894 30.1668C183.314 30.1668 182.701 29.7468 182.534 29.1535C182.421 28.7468 182.381 28.3068 182.347 27.8801C182.261 26.8135 182.201 25.7401 182.107 24.6735C182.087 24.4801 181.974 24.2935 181.881 24.0401C181.134 24.4735 180.774 25.1335 180.421 25.7735C179.867 26.7801 179.054 27.5068 178.121 28.1268C177.974 28.2268 177.814 28.3535 177.647 28.3668C177.381 28.3935 177.007 28.4335 176.854 28.2868C176.701 28.1401 176.641 27.7201 176.741 27.5135C177.107 26.7401 177.474 25.9468 177.994 25.2801C179.307 23.6068 180.374 21.7868 181.394 19.9401C181.494 19.7535 181.581 19.5535 181.641 19.3468C181.674 19.2201 181.647 19.0735 181.647 18.8401C181.101 18.8401 180.581 18.8401 180.067 18.8401C179.607 18.8401 179.134 18.8801 178.687 18.8135C178.107 18.7201 177.527 18.5068 177.427 17.8268C177.314 17.0601 177.387 16.3001 178.094 15.7935C178.934 15.1935 179.881 14.9001 180.907 14.8868C181.481 14.8801 182.061 14.9135 182.627 14.8801C183.407 14.8335 184.187 14.7468 184.967 14.6735C185.861 14.5868 186.747 14.4868 187.614 14.8601C188.367 15.1868 188.614 15.6668 188.214 16.3801C187.901 16.9335 187.467 17.4268 187.041 17.9068C186.427 18.5935 186.447 18.9201 187.194 19.4401C187.487 19.6468 187.747 19.8935 188.047 20.0868C188.687 20.5068 189.061 21.0801 189.067 21.8801C190.214 22.1735 191.234 21.8535 192.247 21.5068C192.647 21.3668 192.894 20.5468 192.754 20.1068C192.607 19.6401 192.261 19.4535 191.654 19.5201C191.334 19.5535 191.014 19.6135 190.694 19.6201C189.841 19.6335 189.421 19.3135 189.207 18.5268C188.981 17.6801 189.154 17.0468 189.854 16.7135C190.587 16.3668 191.374 16.0935 192.154 15.8868C192.887 15.6935 193.061 15.6068 193.094 14.8468C193.121 14.2401 193.141 13.6135 193.014 13.0268C192.821 12.1001 193.307 11.5335 193.901 10.9935C194.081 10.8268 194.314 10.7068 194.534 10.5935C195.561 10.0601 196.154 10.2735 196.534 11.3535C196.801 12.1268 196.974 12.9335 196.727 13.7601C196.647 14.0335 196.574 14.3201 196.561 14.6001C196.514 15.4201 196.821 15.7201 197.634 15.6735C197.954 15.6535 198.274 15.5935 198.587 15.5335C199.754 15.3068 201.134 16.6135 200.841 18.1268C200.721 18.7468 200.274 19.0601 199.747 19.1868C198.954 19.3735 198.134 19.4468 197.321 19.5535C197.041 19.5935 196.754 19.6068 196.414 19.6335C196.314 19.9468 196.181 20.2401 196.141 20.5468C196.067 21.2201 196.354 21.5335 197.047 21.5601C199.014 21.6401 200.981 21.6935 202.947 21.7868C204.194 21.8401 205.094 22.5201 205.747 23.5201C206.154 24.1401 206.047 24.6468 205.527 25.1601C204.554 26.1268 203.361 26.2001 202.127 25.8935C200.347 25.4468 198.554 25.1268 196.714 25.2468C195.614 25.3201 194.527 25.6001 193.434 25.6401C191.921 25.6935 190.447 25.9401 189.001 26.3601C188.407 26.5335 187.814 26.7335 187.307 26.1668C186.721 25.5068 186.447 24.7668 186.761 23.8935C186.847 23.6468 186.967 23.4268 187.161 23.0001Z" fill="white"/>
<path d="M116.634 15.5399C116.187 15.6733 115.894 15.7666 115.587 15.8466C114.7 16.0933 113.774 15.6466 113.474 14.8333C113.12 13.8533 113.5 12.8866 114.434 12.5266C115.607 12.0799 116.834 11.8266 118.094 11.8333C118.38 11.8333 118.667 11.8533 118.954 11.8133C120.14 11.6599 120.18 11.5666 120.247 10.3733C120.3 9.41993 120.787 8.59326 121.387 7.89326C121.947 7.2466 123.06 7.41993 123.507 8.19993C123.82 8.7466 124.034 9.37326 124.174 9.9866C124.507 11.4266 124.7 11.6133 126.207 11.5266C126.74 11.4933 127.274 11.4333 127.8 11.3666C128.707 11.2466 129.514 11.5466 130.254 11.9933C131.38 12.6733 131.34 13.9733 130.22 14.6533C129.507 15.0866 128.727 15.1133 127.934 15.0666C126.5 14.9799 126.387 15.0199 125.8 16.3199C124.827 18.4666 124.934 18.5599 126.494 20.0333C128.7 22.0999 131.18 23.7933 133.887 25.1399C134.594 25.4933 135.3 25.8466 135.947 26.2933C137.02 27.0333 136.854 28.3733 135.66 28.9333C135.56 28.9799 135.467 29.0399 135.367 29.0599C133.66 29.3599 131.954 29.3799 130.254 29.0199C129.974 28.9599 129.654 28.7199 129.494 28.4733C128.18 26.4466 126.3 24.9066 124.847 23.0066C124.614 22.6999 124.3 22.4399 124 22.1933C123.24 21.5733 122.847 21.6066 122.207 22.3999C120.987 23.9133 119.614 25.2666 118.02 26.3799C116.507 27.4399 114.854 28.1866 112.954 28.2333C112.707 28.2399 112.44 28.2333 112.214 28.1533C111.64 27.9533 111.02 27.7733 110.974 26.9999C110.927 26.2199 111 25.4799 111.787 25.0466C112.547 24.6333 113.327 24.2866 114.234 24.3599C115.134 24.4333 115.927 24.1466 116.634 23.5933C117.627 22.8266 118.64 22.0933 119.614 21.3066C120.06 20.9466 120.447 20.4599 120.327 19.8333C120.207 19.2133 119.74 18.8799 119.12 18.7533C118.734 18.6733 118.36 18.5666 117.974 18.4733C116.767 18.1999 116.02 17.4799 116.54 16.2666C116.614 16.1066 116.594 15.9133 116.634 15.5399ZM120.527 15.3333C120.914 16.1999 121.5 16.3866 122.087 16.4933C122.467 16.5666 122.847 16.1733 122.88 15.7733C122.927 15.2933 122.587 15.1066 122.22 15.1133C121.707 15.1199 121.194 15.2466 120.527 15.3333Z" fill="white"/>
<path d="M65.7342 23.7597C67.7142 23.5997 69.3875 23.4331 71.0609 23.3464C71.7609 23.3064 72.4942 23.333 73.1809 23.4864C74.2609 23.733 74.6942 24.6464 74.1809 25.6331C73.4209 27.0997 72.3009 28.2264 70.7409 28.8597C70.6409 28.8997 70.5209 28.8864 70.4342 28.9397C69.1676 29.7464 67.8476 29.5664 66.5076 29.1597C65.2476 28.7797 63.9675 28.4464 62.7075 28.0664C61.4142 27.673 60.1276 27.2464 58.8409 26.8464C58.1942 26.6464 57.5476 26.4331 56.8876 26.2664C54.3009 25.6131 52.7475 23.2664 53.2809 20.673C53.5475 19.3864 53.9542 18.1197 54.3009 16.8464C54.3542 16.6397 54.4209 16.433 54.4609 16.2197C54.5942 15.573 54.3342 15.2664 53.6875 15.3064C53.4742 15.3197 53.2742 15.4064 53.0609 15.4464C52.0209 15.6197 51.1542 15.253 50.6476 14.4264C50.2809 13.8197 50.3809 12.7064 50.9342 12.0197C51.7542 11.0064 52.7675 10.3397 54.1342 10.2997C55.7275 10.253 57.2676 10.553 58.7876 10.9397C60.2609 11.3197 60.7075 12.8797 59.7142 14.0597C58.8542 15.0797 58.0609 16.133 57.6209 17.4064C57.3742 18.113 57.1676 18.833 57.0076 19.5664C56.7742 20.633 57.8542 21.813 58.8409 22.1864C59.7742 22.5397 60.7409 22.8331 61.7142 23.0397C63.1342 23.3597 64.5809 23.5597 65.7342 23.7597Z" fill="white"/>
<path d="M164.768 26.7734C163.954 26.52 163.128 26.3067 162.334 26C161.168 25.5534 160.021 25.06 158.881 24.5534C157.248 23.8334 155.801 22.8667 155.034 21.1734C154.874 20.8267 154.808 20.42 154.781 20.0334C154.668 18.2134 154.674 16.38 154.441 14.5734C154.308 13.5334 154.668 12.76 155.161 11.98C155.908 10.8 156.761 10.7334 157.734 11.7667C157.981 12.0267 158.181 12.3267 158.368 12.6334C158.661 13.1067 159.061 13.3134 159.621 13.3067C160.554 13.2934 161.481 13.3334 162.414 13.34C163.561 13.3467 164.468 14.0067 164.634 14.9667C164.781 15.7934 164.488 16.38 163.668 16.6267C162.854 16.8734 162.001 16.9934 161.161 17.1734C160.361 17.34 159.521 17.4067 158.774 17.7C157.841 18.0667 157.748 18.74 158.461 19.46C158.914 19.9134 159.421 20.3334 159.968 20.66C161.161 21.3734 162.341 22.02 163.861 21.9534C165.234 21.8934 166.628 22.2067 168.014 22.38C168.328 22.42 168.641 22.5467 168.914 22.7067C169.774 23.1867 169.888 24.04 169.194 24.76C168.001 26.0067 166.568 26.7134 164.768 26.7734Z" fill="white"/>
<path d="M150.114 10.3867C151.02 10.4934 151.794 10.8334 152.24 11.6601C152.687 12.4934 152.36 13.2467 151.88 13.9601C151.84 14.0201 151.794 14.0867 151.734 14.1134C149.894 15.0401 150.127 16.8401 150.06 18.4134C149.954 21.0134 150.034 23.6134 150.36 26.2067C150.454 26.9334 150.3 27.7067 150.147 28.4334C150.074 28.7867 149.774 29.1267 149.5 29.3867C149.047 29.8201 148.567 29.7667 148.074 29.3467C147.594 28.9467 147.42 28.4201 147.387 27.8334C147.26 25.4067 147.16 22.9801 147.007 20.5601C146.934 19.4601 146.794 18.3601 146.607 17.2801C146.454 16.3867 146.38 16.4067 145.487 16.3067C145.034 16.2534 144.567 16.1601 144.147 15.9801C143.307 15.6201 142.774 14.7534 142.867 13.9334C142.974 13.0001 143.287 12.2334 144.354 11.9467C145.66 11.6001 146.934 11.1067 148.234 10.7267C148.847 10.5467 149.494 10.4934 150.114 10.3867Z" fill="white"/>
<path d="M184.127 10.1466C185.107 10.0733 185.941 10.3333 186.707 11.1C187.367 11.76 187.221 12.9466 186.434 13.2666C184.887 13.8866 183.274 14.2066 181.621 13.74C180.861 13.5266 180.501 12.8733 180.554 12.0666C180.607 11.28 181.287 10.4866 182.074 10.32C182.454 10.24 182.847 10.1866 183.241 10.1466C183.527 10.1266 183.814 10.1466 184.127 10.1466Z" fill="white"/>
</svg>
