<svg width="129" height="44" viewBox="0 0 129 44" fill="none" xmlns="http://www.w3.org/2000/svg">
<path d="M108.23 36.45C107.93 36.51 107.63 36.62 107.33 36.62C106.62 36.61 105.92 36.53 105.21 36.51C104.25 36.48 103.28 35.56 103.3 34.62C103.32 33.89 103.4 33.17 103.42 32.44C103.44 31.63 103.22 31.3 102.42 31.24C101.82 31.2 101.18 31.31 100.59 31.45C99.63 31.69 99.82 32.56 100.12 33.41C100.5 34.49 101.49 34.98 102.27 35.68C102.43 35.83 102.53 36.04 102.66 36.23C102.45 36.37 102.24 36.62 102.03 36.62C101.03 36.62 100.02 36.63 99.04 36.47C98.62 36.4 98.26 35.93 97.88 35.63C97.09 34.97 96.36 34.21 95.49 33.68C95.1 33.44 94.41 33.57 93.89 33.67C93.43 33.76 93.17 34.15 93.21 34.65C93.25 35.12 93.28 35.59 93.92 35.69C94.08 35.72 94.19 36 94.33 36.16C94.14 36.24 93.96 36.35 93.77 36.39C93.51 36.45 93.24 36.49 92.98 36.49C92.35 36.49 91.72 36.47 91.09 36.46C90.95 36.46 90.82 36.43 90.68 36.45C89.96 36.51 89.62 36.19 89.69 35.63C89.79 34.84 89.92 34.05 90.11 33.27C90.3 32.5 90.72 31.75 90.76 30.98C90.81 30.23 90.56 29.44 90.36 28.69C90.13 27.84 89.71 27.04 89.53 26.19C89.26 24.96 89.2 23.72 90.06 22.62C90.45 22.12 90.67 21.49 91.09 21.03C91.94 20.11 92.65 19.12 93.99 18.64C95.01 18.28 96.02 18.19 97.03 17.98C97.09 17.97 97.16 17.96 97.22 17.98C98.28 18.39 99.39 18.44 100.51 18.53C101.04 18.57 101.57 18.69 102.11 18.72C103.07 18.78 104.03 18.88 104.98 18.84C106.34 18.78 107.71 18.66 109.06 18.47C110.36 18.28 111.61 18.37 112.88 18.65C113.84 18.86 114.84 19.13 115.8 19.07C116.9 19 117.91 19.12 118.83 19.64C120.68 20.69 122.54 21.71 124.2 23.06C124.63 23.41 124.63 23.98 124.07 24.27C123.28 24.69 122.43 24.99 121.58 25.28C120.34 25.71 119.03 25.96 117.85 26.51C116.58 27.1 115.44 27.99 114.21 28.68C113.56 29.05 112.96 29.42 112.56 30.08C112.25 30.59 112.17 31.02 112.48 31.57C112.79 32.12 113.07 32.72 113.22 33.33C113.44 34.21 114.06 34.66 114.77 35.08C115.11 35.28 115.46 35.44 115.79 35.66C115.95 35.77 116.14 35.97 116.13 36.11C116.12 36.26 115.9 36.5 115.74 36.52C115.23 36.6 114.72 36.6 114.2 36.61C113.95 36.61 113.7 36.51 113.46 36.53C112.27 36.66 111.46 36.09 110.65 35.29C109.94 34.58 109.06 34.05 108.23 33.48C108.03 33.34 107.71 33.26 107.49 33.31C107.06 33.41 106.49 33.4 106.44 34.06C106.39 34.71 106.78 35.25 107.41 35.54C107.73 35.69 107.99 35.98 108.28 36.2C108.27 36.27 108.25 36.36 108.23 36.45Z" fill="white"/>
<path d="M12.01 10.93C12.83 10.48 13.54 10.25 13.85 9.53C14.34 8.38 15.33 7.93 16.43 7.65C16.75 7.57 17.12 7.74 17.47 7.75C19.08 7.8 20.7 8.02 21.94 9.06C23.08 10.02 24.22 11.01 24.85 12.49C25.46 13.91 25.74 15.3 25.62 16.85C25.51 18.24 25.2 19.5 24.56 20.74C24.07 21.69 24.03 22.67 24.73 23.7C25.23 24.44 25.33 25.47 25.58 26.37C25.98 27.87 25.59 29.34 25.32 30.81C25.3 30.91 25.25 31.01 25.2 31.09C24.65 32 24.21 33.02 23.5 33.79C22.71 34.65 21.73 35.36 20.56 35.76C19.13 36.25 17.67 36.47 16.19 36.5C13.35 36.55 10.52 36.52 7.67999 36.51C7.45999 36.51 7.22999 36.46 7.00999 36.43C6.36999 36.33 6.13999 35.99 6.13999 35.31C6.15999 26.67 6.15999 18.03 6.14999 9.4C6.14999 9.05 6.09999 8.7 6.05999 8.35C6.02999 7.9 6.50999 7.4 7.12999 7.38C7.89999 7.36 8.66999 7.47 9.43999 7.47C9.86999 7.47 10.31 7.42 10.73 7.34C11.62 7.17 12.11 7.7 12 8.61C11.91 9.32 12 10.04 12.01 10.93ZM15.31 24.46C15.31 24.48 15.31 24.5 15.31 24.52C14.72 24.52 14.13 24.52 13.54 24.52C12.53 24.52 12.13 24.82 11.99 25.79C11.93 26.24 12.01 26.71 12.03 27.16C12.05 27.49 12.09 27.82 12.08 28.15C12.07 28.54 11.96 28.93 11.98 29.32C12.02 30.45 12.51 31.09 13.45 31.09C14.99 31.09 16.55 31.13 18.05 30.88C18.73 30.76 19.51 30.09 19.86 29.46C20.21 28.83 20.16 27.93 20.16 27.15C20.16 25.91 19.14 24.79 17.93 24.64C17.06 24.55 16.18 24.52 15.31 24.46ZM15.06 13.19C15.06 13.22 15.05 13.26 15.05 13.29C14.48 13.29 13.92 13.29 13.35 13.29C12.57 13.3 12.1 13.75 12.1 14.52C12.09 15.57 12.1 16.63 12.1 17.68C12.1 18.66 12.46 19 13.47 18.97C14.7 18.93 15.94 18.87 17.17 18.85C18.63 18.83 19.66 18.06 20.01 16.67C20.39 15.19 19.63 13.84 18.15 13.55C17.13 13.35 16.09 13.3 15.06 13.19Z" fill="white"/>
<path d="M67.22 22.56C67.22 18.5 67.22 14.44 67.22 10.39C67.22 9.65 67.22 8.91 67.22 8.17C67.22 7.63 67.72 7.21 68.25 7.23C69.44 7.28 70.63 7.33 71.82 7.35C72.79 7.37 73.16 7.86 72.94 8.8C72.85 9.2 72.78 9.62 72.79 10.03C72.8 10.27 72.94 10.66 73.1 10.7C73.32 10.76 73.68 10.64 73.87 10.47C74.44 9.96 74.97 9.41 75.5 8.86C76.52 7.8 77.8 7.66 79.16 7.78C79.63 7.82 80.15 7.77 80.58 7.94C82.19 8.55 83.79 9.32 84.82 10.71C85.65 11.82 86.33 13.06 86.55 14.53C86.88 16.69 86.58 18.68 85.53 20.59C85.01 21.53 84.39 22.35 83.55 23.02C83.03 23.43 83.03 23.89 83.45 24.54C84.47 26.1 85.14 27.79 85.24 29.66C85.35 31.79 86.01 33.67 87.38 35.32C87.56 35.54 87.69 36.08 87.57 36.2C87.32 36.44 86.89 36.6 86.54 36.61C85.47 36.63 84.41 36.53 83.34 36.52C82.52 36.51 81.83 36.34 81.46 35.5C81.04 34.57 80.44 33.69 80.18 32.72C79.93 31.79 80.05 30.78 79.94 29.81C79.76 28.22 79.11 26.87 78.02 25.66C76.82 24.32 75.31 24.39 73.78 24.44C73.51 24.45 73.08 24.82 73.03 25.08C72.86 25.93 72.79 26.8 72.77 27.66C72.75 28.45 72.87 29.24 72.88 30.03C72.9 31.65 72.89 33.27 72.88 34.89C72.88 35.2 72.79 35.5 72.76 35.81C72.72 36.32 72.37 36.49 71.95 36.5C70.69 36.53 69.43 36.52 68.17 36.5C67.52 36.49 67.21 36.07 67.21 35.25C67.21 33.08 67.21 30.92 67.21 28.75C67.22 26.68 67.22 24.62 67.22 22.56ZM75.42 13.67C74.92 13.67 74.4 13.61 73.91 13.69C73.59 13.75 73.15 13.96 73.04 14.22C72.84 14.67 72.81 15.21 72.78 15.72C72.74 16.41 72.81 17.11 72.76 17.8C72.72 18.35 73.08 18.96 73.6 18.96C75.32 18.97 77.05 19 78.77 18.95C80.1 18.91 80.58 18.52 80.95 17.24C81.06 16.85 81.08 16.43 81.08 16.02C81.1 14.78 79.96 13.66 78.71 13.66C77.62 13.67 76.52 13.67 75.42 13.67Z" fill="white"/>
<path d="M45.65 30.51C45.65 28.83 45.65 27.15 45.65 25.47C45.65 19.75 45.65 14.03 45.65 8.31C45.65 7.63 45.9 7.37 46.58 7.37C47.67 7.36 48.77 7.37 49.86 7.37C50.09 7.37 50.34 7.39 50.54 7.32C51.07 7.12 51.7 7.72 51.7 8.33C51.7 11.31 51.7 14.3 51.7 17.28C51.7 17.5 51.59 17.73 51.63 17.93C51.82 18.93 52.37 19.18 53.61 18.98C54.13 18.89 54.67 18.97 55.2 18.96C56.43 18.93 57.66 18.94 58.88 18.82C59.45 18.76 59.68 18.28 59.57 17.66C59.51 17.35 59.64 17.01 59.64 16.69C59.65 14 59.64 11.31 59.64 8.62C59.64 7.62 60.18 7.25 61.19 7.35C62.2 7.44 63.22 7.37 64.24 7.38C65.33 7.38 65.57 7.67 65.46 8.73C65.42 9.14 65.54 9.56 65.54 9.97C65.54 10.44 65.45 10.92 65.45 11.39C65.44 18.3 65.45 25.22 65.45 32.13C65.45 33.27 65.46 34.41 65.45 35.55C65.44 36.35 64.93 36.66 64.14 36.57C63.18 36.47 62.21 36.52 61.25 36.52C59.82 36.51 59.55 36.28 59.53 34.84C59.52 34.22 59.62 33.6 59.64 32.98C59.66 32.31 59.65 31.63 59.65 30.95C59.65 29.37 59.65 27.8 59.65 26.22C59.65 24.56 59.2 24.59 57.89 24.45C56.76 24.32 55.59 24.52 54.44 24.53C53.86 24.54 53.28 24.47 52.7 24.41C52.18 24.35 51.9 24.66 51.77 25.07C51.64 25.48 51.58 25.92 51.59 26.35C51.61 27.71 51.69 29.07 51.7 30.42C51.7 31.65 51.62 32.88 51.59 34.11C51.58 34.64 51.65 35.18 51.57 35.69C51.44 36.52 51.21 36.58 50.36 36.54C49.22 36.48 48.08 36.49 46.94 36.53C45.84 36.57 45.6 36.36 45.64 35.2C45.68 33.62 45.65 32.07 45.65 30.51Z" fill="white"/>
<path d="M27.36 21.74C27.36 17.24 27.36 12.74 27.36 8.25C27.36 7.45 27.81 7.23 28.6 7.33C29.57 7.45 30.58 7.42 31.56 7.33C32.57 7.24 33.05 7.73 32.89 8.72C32.8 9.29 32.9 9.9 32.97 10.49C32.99 10.64 33.25 10.88 33.37 10.87C33.61 10.84 33.88 10.7 34.04 10.52C34.81 9.64 35.51 8.7 36.32 7.85C36.58 7.57 37.08 7.39 37.48 7.38C39.35 7.33 41.22 7.35 43.09 7.36C43.85 7.36 44.1 7.78 44.06 8.56C44.02 9.53 44.12 10.51 44.13 11.49C44.13 11.9 44.1 12.32 44 12.72C43.88 13.21 43.46 13.29 43.01 13.28C40.13 13.28 37.25 13.29 34.37 13.27C33.27 13.27 33.05 13.5 32.96 14.39C32.84 15.54 32.86 16.71 32.96 17.86C33.03 18.7 33.44 18.95 34.32 18.95C36.59 18.95 38.86 18.95 41.13 18.95C42 18.95 42.23 19.2 42.25 20.05C42.28 21.13 42.33 22.22 42.37 23.3C42.4 24.07 41.73 24.61 40.98 24.43C40.8 24.39 40.61 24.37 40.42 24.37C39.14 24.41 37.87 24.46 36.59 24.49C35.83 24.51 35.07 24.46 34.31 24.5C33.3 24.56 32.91 25 32.91 25.99C32.91 27.1 32.9 28.22 32.92 29.33C32.93 29.74 32.97 30.16 33.06 30.56C33.18 31.07 33.58 31.18 34.07 31.18C36.91 31.17 39.74 31.18 42.58 31.17C43.84 31.17 44.17 31.54 44.14 32.75C44.12 33.59 44.14 34.43 44.13 35.27C44.12 36.15 43.79 36.47 42.92 36.47C38.06 36.47 33.2 36.47 28.35 36.47C27.6 36.47 27.36 36.23 27.36 35.46C27.35 30.91 27.36 26.32 27.36 21.74Z" fill="white"/>
</svg>
