<svg width="25" height="25" viewBox="0 0 25 25" fill="none" xmlns="http://www.w3.org/2000/svg">
<path d="M22.5616 8.18638C22.3196 7.3264 21.6084 6.64798 20.7054 6.41858C19.0671 6 12.5006 6 12.5006 6C12.5006 6 5.93286 6 4.29579 6.41858C3.39277 6.64798 2.6804 7.3264 2.43838 8.18638C2 9.74653 2 13.0005 2 13.0005C2 13.0005 2 16.2546 2.43838 17.8147C2.6804 18.6758 3.39163 19.3531 4.29579 19.5825C5.934 20 12.5006 20 12.5006 20C12.5006 20 19.0671 20 20.7054 19.5825C21.6084 19.352 22.3207 18.6747 22.5616 17.8147C23 16.2546 23 13.0005 23 13.0005C23 13.0005 23 9.74653 22.5616 8.18638ZM10.4 16.0002V9.99985L15.8558 13.0005L10.4 16.0002Z" fill="white" fill-opacity="0.8"/>
</svg>
