<svg width="129" height="44" viewBox="0 0 129 44" fill="none" xmlns="http://www.w3.org/2000/svg">
<path d="M108.23 36.45C107.93 36.51 107.63 36.62 107.33 36.62C106.62 36.61 105.92 36.53 105.21 36.51C104.25 36.48 103.28 35.56 103.3 34.62C103.32 33.89 103.4 33.17 103.42 32.44C103.44 31.63 103.22 31.3 102.42 31.24C101.82 31.2 101.18 31.31 100.59 31.45C99.63 31.69 99.82 32.56 100.12 33.41C100.5 34.49 101.49 34.98 102.27 35.68C102.43 35.83 102.53 36.04 102.66 36.23C102.45 36.37 102.24 36.62 102.03 36.62C101.03 36.62 100.02 36.63 99.04 36.47C98.62 36.4 98.26 35.93 97.88 35.63C97.09 34.97 96.36 34.21 95.49 33.68C95.1 33.44 94.41 33.57 93.89 33.67C93.43 33.76 93.17 34.15 93.21 34.65C93.25 35.12 93.28 35.59 93.92 35.69C94.08 35.72 94.19 36 94.33 36.16C94.14 36.24 93.96 36.35 93.77 36.39C93.51 36.45 93.24 36.49 92.98 36.49C92.35 36.49 91.72 36.47 91.09 36.46C90.95 36.46 90.82 36.43 90.68 36.45C89.96 36.51 89.62 36.19 89.69 35.63C89.79 34.84 89.92 34.05 90.11 33.27C90.3 32.5 90.72 31.75 90.76 30.98C90.81 30.23 90.56 29.44 90.36 28.69C90.13 27.84 89.71 27.04 89.53 26.19C89.26 24.96 89.2 23.72 90.06 22.62C90.45 22.12 90.67 21.49 91.09 21.03C91.94 20.11 92.65 19.12 93.99 18.64C95.01 18.28 96.02 18.19 97.03 17.98C97.09 17.97 97.16 17.96 97.22 17.98C98.28 18.39 99.39 18.44 100.51 18.53C101.04 18.57 101.57 18.69 102.11 18.72C103.07 18.78 104.03 18.88 104.98 18.84C106.34 18.78 107.71 18.66 109.06 18.47C110.36 18.28 111.61 18.37 112.88 18.65C113.84 18.86 114.84 19.13 115.8 19.07C116.9 19 117.91 19.12 118.83 19.64C120.68 20.69 122.54 21.71 124.2 23.06C124.63 23.41 124.63 23.98 124.07 24.27C123.28 24.69 122.43 24.99 121.58 25.28C120.34 25.71 119.03 25.96 117.85 26.51C116.58 27.1 115.44 27.99 114.21 28.68C113.56 29.05 112.96 29.42 112.56 30.08C112.25 30.59 112.17 31.02 112.48 31.57C112.79 32.12 113.07 32.72 113.22 33.33C113.44 34.21 114.06 34.66 114.77 35.08C115.11 35.28 115.46 35.44 115.79 35.66C115.95 35.77 116.14 35.97 116.13 36.11C116.12 36.26 115.9 36.5 115.74 36.52C115.23 36.6 114.72 36.6 114.2 36.61C113.95 36.61 113.7 36.51 113.46 36.53C112.27 36.66 111.46 36.09 110.65 35.29C109.94 34.58 109.06 34.05 108.23 33.48C108.03 33.34 107.71 33.26 107.49 33.31C107.06 33.41 106.49 33.4 106.44 34.06C106.39 34.71 106.78 35.25 107.41 35.54C107.73 35.69 107.99 35.98 108.28 36.2C108.27 36.27 108.25 36.36 108.23 36.45Z" fill="#1D1D1D"/>
<path d="M12.0099 10.93C12.8299 10.48 13.5399 10.25 13.8499 9.53C14.3399 8.38 15.3299 7.93 16.4299 7.65C16.7499 7.57 17.1199 7.74 17.4699 7.75C19.0799 7.8 20.6999 8.02 21.9399 9.06C23.0799 10.02 24.2199 11.01 24.8499 12.49C25.4599 13.91 25.7399 15.3 25.6199 16.85C25.5099 18.24 25.1999 19.5 24.5599 20.74C24.0699 21.69 24.0299 22.67 24.7299 23.7C25.2299 24.44 25.3299 25.47 25.5799 26.37C25.9799 27.87 25.5899 29.34 25.3199 30.81C25.2999 30.91 25.2499 31.01 25.1999 31.09C24.6499 32 24.2099 33.02 23.4999 33.79C22.7099 34.65 21.7299 35.36 20.5599 35.76C19.1299 36.25 17.6699 36.47 16.1899 36.5C13.3499 36.55 10.5199 36.52 7.67993 36.51C7.45993 36.51 7.22993 36.46 7.00993 36.43C6.36993 36.33 6.13993 35.99 6.13993 35.31C6.15993 26.67 6.15993 18.03 6.14993 9.4C6.14993 9.05 6.09993 8.7 6.05993 8.35C6.02993 7.9 6.50993 7.4 7.12993 7.38C7.89993 7.36 8.66993 7.47 9.43993 7.47C9.86993 7.47 10.3099 7.42 10.7299 7.34C11.6199 7.17 12.1099 7.7 11.9999 8.61C11.9099 9.32 11.9999 10.04 12.0099 10.93ZM15.3099 24.46C15.3099 24.48 15.3099 24.5 15.3099 24.52C14.7199 24.52 14.1299 24.52 13.5399 24.52C12.5299 24.52 12.1299 24.82 11.9899 25.79C11.9299 26.24 12.0099 26.71 12.0299 27.16C12.0499 27.49 12.0899 27.82 12.0799 28.15C12.0699 28.54 11.9599 28.93 11.9799 29.32C12.0199 30.45 12.5099 31.09 13.4499 31.09C14.9899 31.09 16.5499 31.13 18.0499 30.88C18.7299 30.76 19.5099 30.09 19.8599 29.46C20.2099 28.83 20.1599 27.93 20.1599 27.15C20.1599 25.91 19.1399 24.79 17.9299 24.64C17.0599 24.55 16.1799 24.52 15.3099 24.46ZM15.0599 13.19C15.0599 13.22 15.0499 13.26 15.0499 13.29C14.4799 13.29 13.9199 13.29 13.3499 13.29C12.5699 13.3 12.0999 13.75 12.0999 14.52C12.0899 15.57 12.0999 16.63 12.0999 17.68C12.0999 18.66 12.4599 19 13.4699 18.97C14.6999 18.93 15.9399 18.87 17.1699 18.85C18.6299 18.83 19.6599 18.06 20.0099 16.67C20.3899 15.19 19.6299 13.84 18.1499 13.55C17.1299 13.35 16.0899 13.3 15.0599 13.19Z" fill="#1D1D1D"/>
<path d="M67.22 22.56C67.22 18.5 67.22 14.44 67.22 10.39C67.22 9.65 67.22 8.91 67.22 8.17C67.22 7.63 67.72 7.21 68.25 7.23C69.44 7.28 70.63 7.33 71.82 7.35C72.79 7.37 73.16 7.86 72.94 8.8C72.85 9.2 72.78 9.62 72.79 10.03C72.8 10.27 72.94 10.66 73.1 10.7C73.32 10.76 73.68 10.64 73.87 10.47C74.44 9.96 74.97 9.41 75.5 8.86C76.52 7.8 77.8 7.66 79.16 7.78C79.63 7.82 80.15 7.77 80.58 7.94C82.19 8.55 83.79 9.32 84.82 10.71C85.65 11.82 86.33 13.06 86.55 14.53C86.88 16.69 86.58 18.68 85.53 20.59C85.01 21.53 84.39 22.35 83.55 23.02C83.03 23.43 83.03 23.89 83.45 24.54C84.47 26.1 85.14 27.79 85.24 29.66C85.35 31.79 86.01 33.67 87.38 35.32C87.56 35.54 87.69 36.08 87.57 36.2C87.32 36.44 86.89 36.6 86.54 36.61C85.47 36.63 84.41 36.53 83.34 36.52C82.52 36.51 81.83 36.34 81.46 35.5C81.04 34.57 80.44 33.69 80.18 32.72C79.93 31.79 80.05 30.78 79.94 29.81C79.76 28.22 79.11 26.87 78.02 25.66C76.82 24.32 75.31 24.39 73.78 24.44C73.51 24.45 73.08 24.82 73.03 25.08C72.86 25.93 72.79 26.8 72.77 27.66C72.75 28.45 72.87 29.24 72.88 30.03C72.9 31.65 72.89 33.27 72.88 34.89C72.88 35.2 72.79 35.5 72.76 35.81C72.72 36.32 72.37 36.49 71.95 36.5C70.69 36.53 69.43 36.52 68.17 36.5C67.52 36.49 67.21 36.07 67.21 35.25C67.21 33.08 67.21 30.92 67.21 28.75C67.22 26.68 67.22 24.62 67.22 22.56ZM75.42 13.67C74.92 13.67 74.4 13.61 73.91 13.69C73.59 13.75 73.15 13.96 73.04 14.22C72.84 14.67 72.81 15.21 72.78 15.72C72.74 16.41 72.81 17.11 72.76 17.8C72.72 18.35 73.08 18.96 73.6 18.96C75.32 18.97 77.05 19 78.77 18.95C80.1 18.91 80.58 18.52 80.95 17.24C81.06 16.85 81.08 16.43 81.08 16.02C81.1 14.78 79.96 13.66 78.71 13.66C77.62 13.67 76.52 13.67 75.42 13.67Z" fill="#1D1D1D"/>
<path d="M45.6501 30.51C45.6501 28.83 45.6501 27.15 45.6501 25.47C45.6501 19.75 45.6501 14.03 45.6501 8.31C45.6501 7.63 45.9001 7.37 46.5801 7.37C47.6701 7.36 48.7701 7.37 49.8601 7.37C50.0901 7.37 50.3401 7.39 50.5401 7.32C51.0701 7.12 51.7001 7.72 51.7001 8.33C51.7001 11.31 51.7001 14.3 51.7001 17.28C51.7001 17.5 51.5901 17.73 51.6301 17.93C51.8201 18.93 52.3701 19.18 53.6101 18.98C54.1301 18.89 54.6701 18.97 55.2001 18.96C56.4301 18.93 57.6601 18.94 58.8801 18.82C59.4501 18.76 59.6801 18.28 59.5701 17.66C59.5101 17.35 59.6401 17.01 59.6401 16.69C59.6501 14 59.6401 11.31 59.6401 8.62C59.6401 7.62 60.1801 7.25 61.1901 7.35C62.2001 7.44 63.2201 7.37 64.2401 7.38C65.3301 7.38 65.5701 7.67 65.4601 8.73C65.4201 9.14 65.5401 9.56 65.5401 9.97C65.5401 10.44 65.4501 10.92 65.4501 11.39C65.4401 18.3 65.4501 25.22 65.4501 32.13C65.4501 33.27 65.4601 34.41 65.4501 35.55C65.4401 36.35 64.9301 36.66 64.1401 36.57C63.1801 36.47 62.2101 36.52 61.2501 36.52C59.8201 36.51 59.5501 36.28 59.5301 34.84C59.5201 34.22 59.6201 33.6 59.6401 32.98C59.6601 32.31 59.6501 31.63 59.6501 30.95C59.6501 29.37 59.6501 27.8 59.6501 26.22C59.6501 24.56 59.2001 24.59 57.8901 24.45C56.7601 24.32 55.5901 24.52 54.4401 24.53C53.8601 24.54 53.2801 24.47 52.7001 24.41C52.1801 24.35 51.9001 24.66 51.7701 25.07C51.6401 25.48 51.5801 25.92 51.5901 26.35C51.6101 27.71 51.6901 29.07 51.7001 30.42C51.7001 31.65 51.6201 32.88 51.5901 34.11C51.5801 34.64 51.6501 35.18 51.5701 35.69C51.4401 36.52 51.2101 36.58 50.3601 36.54C49.2201 36.48 48.0801 36.49 46.9401 36.53C45.8401 36.57 45.6001 36.36 45.6401 35.2C45.6801 33.62 45.6501 32.07 45.6501 30.51Z" fill="#1D1D1D"/>
<path d="M27.3599 21.74C27.3599 17.24 27.3599 12.74 27.3599 8.25C27.3599 7.45 27.8099 7.23 28.5999 7.33C29.5699 7.45 30.5799 7.42 31.5599 7.33C32.5699 7.24 33.0499 7.73 32.8899 8.72C32.7999 9.29 32.8999 9.9 32.9699 10.49C32.9899 10.64 33.2499 10.88 33.3699 10.87C33.6099 10.84 33.8799 10.7 34.0399 10.52C34.8099 9.64 35.5099 8.7 36.3199 7.85C36.5799 7.57 37.0799 7.39 37.4799 7.38C39.3499 7.33 41.2199 7.35 43.0899 7.36C43.8499 7.36 44.0999 7.78 44.0599 8.56C44.0199 9.53 44.1199 10.51 44.1299 11.49C44.1299 11.9 44.0999 12.32 43.9999 12.72C43.8799 13.21 43.4599 13.29 43.0099 13.28C40.1299 13.28 37.2499 13.29 34.3699 13.27C33.2699 13.27 33.0499 13.5 32.9599 14.39C32.8399 15.54 32.8599 16.71 32.9599 17.86C33.0299 18.7 33.4399 18.95 34.3199 18.95C36.5899 18.95 38.8599 18.95 41.1299 18.95C41.9999 18.95 42.2299 19.2 42.2499 20.05C42.2799 21.13 42.3299 22.22 42.3699 23.3C42.3999 24.07 41.7299 24.61 40.9799 24.43C40.7999 24.39 40.6099 24.37 40.4199 24.37C39.1399 24.41 37.8699 24.46 36.5899 24.49C35.8299 24.51 35.0699 24.46 34.3099 24.5C33.2999 24.56 32.9099 25 32.9099 25.99C32.9099 27.1 32.8999 28.22 32.9199 29.33C32.9299 29.74 32.9699 30.16 33.0599 30.56C33.1799 31.07 33.5799 31.18 34.0699 31.18C36.9099 31.17 39.7399 31.18 42.5799 31.17C43.8399 31.17 44.1699 31.54 44.1399 32.75C44.1199 33.59 44.1399 34.43 44.1299 35.27C44.1199 36.15 43.7899 36.47 42.9199 36.47C38.0599 36.47 33.1999 36.47 28.3499 36.47C27.5999 36.47 27.3599 36.23 27.3599 35.46C27.3499 30.91 27.3599 26.32 27.3599 21.74Z" fill="#1D1D1D"/>
</svg>
