<svg width="25" height="25" viewBox="0 0 25 25" fill="none" xmlns="http://www.w3.org/2000/svg">
<path d="M8.6227 3.06538C7.59841 3.10897 6.90102 3.27242 6.29081 3.51215C5.66969 3.76277 5.13575 4.08967 4.60182 4.62361C4.06788 5.15755 3.74098 5.69149 3.50125 6.3235C3.26152 6.93371 3.10897 7.6311 3.05448 8.65539C3.0109 9.67968 3 10.0066 3 12.6109C3.0109 15.2152 3.02179 15.5421 3.06538 16.5664C3.10897 17.5907 3.27242 18.2881 3.51215 18.8874C3.76277 19.5194 4.08967 20.0533 4.62361 20.5873C5.15755 21.1212 5.69149 21.4481 6.3235 21.6879C6.93371 21.9276 7.6311 22.0801 8.65539 22.1346C9.67968 22.1782 10.0066 22.1891 12.6109 22.1891C15.2152 22.1782 15.5421 22.1782 16.5664 22.1237C17.5907 22.0801 18.2881 21.9167 18.8983 21.677C19.5303 21.4263 20.0642 21.0994 20.5982 20.5655C21.1321 20.0316 21.459 19.4976 21.6987 18.8656C21.9385 18.2554 22.091 17.558 22.1455 16.5337C22.1891 15.5094 22.2 15.1825 22.2 12.5782C22.1891 9.97389 22.1891 9.64699 22.1346 8.6227C22.091 7.59841 21.9276 6.90102 21.6879 6.29081C21.4372 5.6588 21.1103 5.12486 20.5764 4.59092C20.0424 4.05698 19.5085 3.73008 18.8765 3.49035C18.2663 3.25062 17.5689 3.09807 16.5446 3.04359C15.5094 3.0109 15.1825 3 12.5782 3C9.97389 3.0109 9.64699 3.02179 8.6227 3.06538ZM8.73167 20.402C7.79455 20.3585 7.2933 20.2059 6.9555 20.0751C6.50874 19.9008 6.19274 19.6938 5.85494 19.356C5.51714 19.0182 5.3101 18.7022 5.13575 18.2554C5.00499 17.9176 4.84154 17.4054 4.79796 16.4792C4.75437 15.4658 4.74347 15.1607 4.73258 12.6C4.73258 10.0393 4.73258 9.73416 4.77616 8.72077C4.81975 7.78365 4.9723 7.28241 5.10306 6.94461C5.27741 6.49784 5.48445 6.18184 5.82225 5.84404C6.16005 5.50624 6.47605 5.2992 6.92281 5.12486C7.26061 4.9941 7.77276 4.84154 8.69898 4.78706C9.71237 4.74347 10.0175 4.73258 12.5673 4.72168C15.128 4.72168 15.4331 4.72168 16.4465 4.76527C17.3837 4.80885 17.8849 4.96141 18.2227 5.09217C18.6695 5.26651 18.9964 5.47355 19.3233 5.81135C19.6611 6.14915 19.8681 6.46515 20.0424 6.91192C20.1732 7.24972 20.3258 7.76186 20.3802 8.68808C20.4238 9.70147 20.4347 10.0066 20.4456 12.5564C20.4565 15.1171 20.4456 15.4222 20.402 16.4356C20.3585 17.3728 20.2059 17.874 20.0751 18.2227C19.9008 18.6695 19.6938 18.9855 19.356 19.3233C19.0182 19.6611 18.7022 19.8681 18.2554 20.0424C17.9176 20.1732 17.4054 20.3258 16.4792 20.3802C15.4658 20.4238 15.1607 20.4347 12.6 20.4456C10.0502 20.4565 9.74506 20.4456 8.73167 20.402ZM16.5555 7.46765C16.5555 8.09966 17.0785 8.6118 17.7106 8.6118C18.3426 8.6118 18.8656 8.08876 18.8547 7.45675C18.8547 6.82474 18.3317 6.3126 17.6997 6.3126C17.0676 6.3126 16.5555 6.83564 16.5555 7.46765ZM7.67469 12.6C7.67469 15.3242 9.88672 17.5144 12.6109 17.5144C15.3242 17.5035 17.5253 15.3024 17.5253 12.5782C17.5144 9.86492 15.3133 7.65289 12.5891 7.66379C9.86493 7.67469 7.66379 9.88672 7.67469 12.6ZM9.39637 12.6C9.39637 10.8347 10.8238 9.40726 12.5891 9.39637C14.3544 9.39637 15.7927 10.8238 15.7927 12.5891C15.7927 14.3544 14.3653 15.7927 12.6 15.7927C10.8347 15.7927 9.40726 14.3653 9.39637 12.6Z" fill="white" fill-opacity="0.8"/>
</svg>
