<svg width="115" height="50" viewBox="0 0 115 50" fill="none" xmlns="http://www.w3.org/2000/svg">
<g clip-path="url(#clip0_81_2)">
<path d="M25.0197 50C38.8262 50 50.0395 38.8198 50.0395 25.0055C50.0395 11.1906 38.8262 0 25.0197 0C11.1919 0 0 11.1906 0 25.0055C0 38.8198 11.1919 50 25.0197 50Z" fill="#A50034"/>
<path d="M24.0131 14.0318V35.9682H30.9869V33.9958H26.0231V14.0318H24.0131Z" fill="white"/>
<path d="M17.0303 20.0171C18.6894 20.0171 20.0268 18.668 20.0268 17.0205C20.0268 15.3718 18.6894 14.0175 17.0303 14.0175C15.3711 14.0175 14.0337 15.3718 14.0337 17.0205C14.0337 18.6693 15.3711 20.0171 17.0303 20.0171Z" fill="white"/>
<path d="M26.0225 4.08084C25.7609 4.06789 25.2638 4.05171 25.0262 4.05171C13.4776 4.05171 4.0789 13.4537 4.0789 24.9951C4.0789 30.6011 6.2572 35.8556 10.2027 39.807C14.1645 43.7493 19.4215 45.9276 25.0262 45.9276C30.6095 45.9276 35.8653 43.7493 39.8199 39.807C43.7752 35.8556 45.9638 30.6011 45.9638 24.9951V24.0636H45.1165H31.0064V25.9914H43.9687C43.9687 26.0335 43.9687 26.238 43.9597 26.2911C43.3007 36.1579 35.06 43.9726 25.0262 43.9726C19.9472 43.9726 15.1847 41.9976 11.6004 38.4106C8.00437 34.8386 6.02286 30.08 6.02286 24.9945C6.02286 19.9381 8.00437 15.1549 11.6004 11.5719C15.1847 7.99207 19.9472 6.01704 25.0262 6.01704C25.245 6.01704 25.7771 6.01704 26.0225 6.02998V4.08084Z" fill="white"/>
<path d="M68.8558 8.41673H61.3375V40.9638H84.4295V34.6282H68.8558V8.41673V8.41673ZM100.968 28.5607H107.092V34.2515C105.963 34.6813 103.761 35.1099 101.666 35.1099C94.8996 35.1099 92.6456 31.6731 92.6456 24.6928C92.6456 18.0362 94.7921 14.1114 101.559 14.1114C105.319 14.1114 107.467 15.2934 109.237 17.5494L113.911 13.2517C111.064 9.17347 106.069 7.93835 101.398 7.93835C90.8699 7.93835 85.3397 13.6841 85.3397 24.6385C85.3397 35.5397 90.3339 41.4467 101.345 41.4467C106.392 41.4467 111.334 40.1585 114.018 38.2792V22.4906H100.968V28.5607Z" fill="#6B6B6B"/>
</g>
<defs>
<clipPath id="clip0_81_2">
<rect width="114.018" height="50" fill="white"/>
</clipPath>
</defs>
</svg>
