<svg xmlns="http://www.w3.org/2000/svg" xmlns:xlink="http://www.w3.org/1999/xlink" width="213.253" height="47.48" viewBox="0 0 213.253 47.48">
  <defs>
    <radialGradient id="radial-gradient" cx="0.75" cy="0.3" r="1.033" gradientTransform="translate(0.006) scale(0.987 1)" gradientUnits="objectBoundingBox">
      <stop offset="0" stop-color="#008ed2"/>
      <stop offset="0.66" stop-color="#00398f"/>
      <stop offset="1" stop-color="#0072c0"/>
    </radialGradient>
    <radialGradient id="radial-gradient-2" cx="0.77" cy="0.58" r="0.951" gradientTransform="translate(-0.01) scale(1.021 1)" gradientUnits="objectBoundingBox">
      <stop offset="0" stop-color="#b9e6fb"/>
      <stop offset="0.63" stop-color="#00b8eb"/>
      <stop offset="1" stop-color="#88d5f8"/>
    </radialGradient>
  </defs>
  <g id="logo" transform="translate(-208.439 -319.141)">
    <g id="그룹_4" data-name="그룹 4">
      <path id="패스_24" data-name="패스 24" d="M248.932,326.061a23.738,23.738,0,1,1-27.9-4.146l3.282-.243S236.843,315.175,248.932,326.061Z" fill-rule="evenodd" fill="url(#radial-gradient)"/>
      <path id="패스_25" data-name="패스 25" d="M216.269,347.224a16.688,16.688,0,0,0,14.566,2.6,16.1,16.1,0,0,0,9.869-8.6c1.888-4.387.877-10.053-4.18-11.677-3.1-1-6.868.434-9.3,2.374-2.011,1.6-4.149,4.015-7.074,2.966-2.285-.821-3.126-3.689-1.168-7.114,1.942-3.4,6.1-6.7,12.715-7.155a24.463,24.463,0,0,1,17.238,5.438,23.754,23.754,0,0,0-27.9-4.146,19.073,19.073,0,0,0-8.109,8.532c-2.592,5.544-2.023,12.649,3.345,16.777Zm-4.8-15.956c-3.207,7.53-.85,16.794,6.577,21,6.775,3.838,16.181,3.367,22.075-2.348,1.9-1.841,3.348-4.621,5.68-5.818a3.635,3.635,0,0,1,3.587.016c1.866,1.247,1.926,3.532,1.247,5.669a15.153,15.153,0,0,1-3.722,5.793A21.936,21.936,0,0,1,236.8,361.6a23.835,23.835,0,0,1-20.177-3.633,20.35,20.35,0,0,1-6.707-23.344A23.594,23.594,0,0,1,211.47,331.268Z" fill-rule="evenodd" fill="url(#radial-gradient-2)"/>
    </g>
    <path id="패스_26" data-name="패스 26" d="M410.608,329.1v-1.667l-11.763.008q0,4.407.007,8.813a2.024,2.024,0,0,0,.67,1.607,2.707,2.707,0,0,0,1.843.583l10.18-.007v-1.692l-9.116.007-.006-7.647,8.187-.005Zm-99.533,13.331a1.5,1.5,0,0,0-1.539-1.441l-4.984,0,0-3.978,9.442-.007v-1.667l-4.039,0a4.608,4.608,0,0,0,.545-.858,6.437,6.437,0,0,0,.328-.954,9.5,9.5,0,0,0,.244-.989,5.752,5.752,0,0,0,.081-.963q0-1.638,0-3.276a1.5,1.5,0,0,0-1.54-1.44l-15.137.012v1.667l13.073-.01,0,3.144a15.069,15.069,0,0,1-.121,1.906,7.133,7.133,0,0,1-.45,1.763l-15.256.011v1.667l9.252-.006,0,3.978-6.6.005v1.667l13.073-.01,0,6.05,3.63,0q0-3.138,0-6.275Zm92.656-1.059h-2.038l0,5a2.022,2.022,0,0,0,.712,1.655,2.827,2.827,0,0,0,1.855.582l13.947-.009v-1.667l-12.937.009,0-4.133a1.5,1.5,0,0,0-1.538-1.44Zm12.4-14.706a1.5,1.5,0,0,1,1.54,1.439q0,1.652,0,3.3l4.013,0v1.667l-4.013,0,.008,9.695-3.575,0q-.006-8.052-.013-16.1l2.037,0Zm-29.9.022-1.913,0q.009,10.968.017,21.938l3.357,0-.011-14.2,2.456,0,.011,14.2,3.357,0q-.006-10.291-.015-20.584a1.406,1.406,0,0,0-1.445-1.353l-1.914,0q0,3.036.005,6.073l-2.456,0q0-2.359,0-4.72a1.405,1.405,0,0,0-1.445-1.353Zm-23.369.018-2.053,0q0,5.931.009,11.861l3.6,0,0-3.311,4.011,0v-1.668l-4.011,0,0-1.926,4.011,0v-1.667l-4.011,0,0-1.837a1.508,1.508,0,0,0-1.551-1.451Zm-29.615.022-1.912,0q.008,10.968.016,21.937l3.358,0-.01-12.934,2.046,0,.01,12.934,3.356,0q-.008-10.291-.016-20.584a1.4,1.4,0,0,0-1.444-1.352h-1.913q0,3.668.006,7.336H334.7q0-2.991-.005-5.982a1.406,1.406,0,0,0-1.446-1.353ZM271.6,341.9l-2.037,0q0,2.287,0,4.574a2.042,2.042,0,0,0,.7,1.654,2.77,2.77,0,0,0,1.843.583l13.645-.011v-1.667l-12.609.01,0-3.7A1.5,1.5,0,0,0,271.6,341.9Zm12.106-15.133a1.5,1.5,0,0,1,1.539,1.44q0,1.851,0,3.7l4.011,0V333.6l-4.011,0,.007,9.29-3.576,0q-.006-8.064-.011-16.127Zm88.227,1.41,0,2,3.93,0a17.562,17.562,0,0,1-.692,5.264,16.564,16.564,0,0,1-1.13,2.884,12.374,12.374,0,0,1-1.432,2.228,13.932,13.932,0,0,1-1.541,1.609l2.077,2.023a6.831,6.831,0,0,0,1.391-1.216,15.81,15.81,0,0,0,1.281-1.645,14.3,14.3,0,0,0,1.049-1.811,16.04,16.04,0,0,0,.723-1.715,17.309,17.309,0,0,0,2.076,2.57q1.2,1.239,2.786,2.666l1.281-1.692c-.6-.538-1.148-1.044-1.64-1.512s-.943-.951-1.365-1.439a14.724,14.724,0,0,1-1.175-1.548,17.14,17.14,0,0,1-1.065-1.9,14.867,14.867,0,0,0,.38-2.168q.135-1.237.217-2.549l3.63,0,0-2.049-10.781.008ZM357.9,339.314a7.654,7.654,0,0,0-2.482.382,6.535,6.535,0,0,0-2.02,1.121,5.333,5.333,0,0,0-1.418,1.658,4.294,4.294,0,0,0,0,3.881,5.312,5.312,0,0,0,1.421,1.63,6.344,6.344,0,0,0,2.021,1.13,8.5,8.5,0,0,0,4.954,0,6.25,6.25,0,0,0,2.032-1.132,5.5,5.5,0,0,0,1.4-1.633,4.176,4.176,0,0,0,0-3.882,5.487,5.487,0,0,0-1.406-1.653,6.35,6.35,0,0,0-2.034-1.12,7.732,7.732,0,0,0-2.471-.378Zm0,1.667a2.186,2.186,0,0,1,1.175.32,3.215,3.215,0,0,1,.9.821,4.067,4.067,0,0,1,.561,1.108,3.714,3.714,0,0,1,.205,1.178,3.677,3.677,0,0,1-.789,2.286,2.871,2.871,0,0,1-.888.776,2.335,2.335,0,0,1-1.159.3,2.4,2.4,0,0,1-1.174-.285,2.89,2.89,0,0,1-.9-.761,3.665,3.665,0,0,1-.561-1.084,3.835,3.835,0,0,1-.206-1.227,4,4,0,0,1,.191-1.2,3.734,3.734,0,0,1,.544-1.107,3.036,3.036,0,0,1,.9-.811,2.293,2.293,0,0,1,1.2-.31Zm-13.3-8.328a4.747,4.747,0,0,1,.476-2.119,5.248,5.248,0,0,1,1.459-1.764,7.106,7.106,0,0,1,2.128-1.217,8.215,8.215,0,0,1,5.089,0,6.963,6.963,0,0,1,2.143,1.214,5.3,5.3,0,0,1,1.434,1.761,4.94,4.94,0,0,1,0,4.24,5.329,5.329,0,0,1-1.432,1.764,6.939,6.939,0,0,1-2.141,1.216,8.217,8.217,0,0,1-5.09,0,7.143,7.143,0,0,1-2.129-1.213,5.256,5.256,0,0,1-1.461-1.762,4.735,4.735,0,0,1-.48-2.12Zm9.634-.03a4.445,4.445,0,0,0-.22-1.37,4.618,4.618,0,0,0-.6-1.226,2.982,2.982,0,0,0-.956-.881,2.459,2.459,0,0,0-1.255-.332,2.5,2.5,0,0,0-1.3.334,3.1,3.1,0,0,0-.94.883,3.786,3.786,0,0,0-.572,1.215,5.132,5.132,0,0,0-.19,1.381,5.231,5.231,0,0,0,.192,1.429,3.831,3.831,0,0,0,.574,1.215,3.085,3.085,0,0,0,.942.88,2.486,2.486,0,0,0,1.3.332,2.444,2.444,0,0,0,1.254-.334,2.97,2.97,0,0,0,.955-.882,4.612,4.612,0,0,0,.6-1.226,4.5,4.5,0,0,0,.218-1.418Zm-32.629-3.86,4.967,0v-1.548l-4.967,0v1.548Zm2.485,4.4a1.781,1.781,0,0,1,1.026.309,2.762,2.762,0,0,1,.751.786,4.127,4.127,0,0,1,.477,1.036,3.851,3.851,0,0,1,.179,1.107,4.212,4.212,0,0,1-.163,1.131,3.8,3.8,0,0,1-.49,1.062,2.648,2.648,0,0,1-.75.773,1.821,1.821,0,0,1-1.025.3,1.91,1.91,0,0,1-1.077-.3,2.729,2.729,0,0,1-.779-.773,3.513,3.513,0,0,1-.45-1.048,4.482,4.482,0,0,1-.151-1.143,4.143,4.143,0,0,1,.162-1.132,3.4,3.4,0,0,1,.491-1.036,2.939,2.939,0,0,1,.778-.775,1.813,1.813,0,0,1,1.021-.3Zm-5.677-2.782v1.62l3.547,0a8.2,8.2,0,0,0-2.645,2.026,3.748,3.748,0,0,0-.871,2.383,4.282,4.282,0,0,0,.41,1.858,4.98,4.98,0,0,0,1.256,1.571,5.573,5.573,0,0,0,1.789,1.07,6.448,6.448,0,0,0,2.2.357,6.177,6.177,0,0,0,2.184-.361,5.377,5.377,0,0,0,1.746-1.072,5.987,5.987,0,0,0,1.268-1.561,3.837,3.837,0,0,0,.449-1.87,3.706,3.706,0,0,0-.889-2.381A8.4,8.4,0,0,0,326.226,332l3.521,0v-1.619l-11.325.008Zm-49.195-2.3,6.195,0,0-1.548-6.194,0v1.548Zm-3.766,1.122,0,1.644,3.52,0a7.455,7.455,0,0,0-1.991,1.978,3.852,3.852,0,0,0-.653,2.1,4.226,4.226,0,0,0,.424,1.869,4.634,4.634,0,0,0,1.325,1.583,6.705,6.705,0,0,0,1.953,1.083,6.855,6.855,0,0,0,2.279.367,7.036,7.036,0,0,0,2.278-.359,6.257,6.257,0,0,0,1.951-1.1,4.9,4.9,0,0,0,1.309-1.585,4.109,4.109,0,0,0,.434-1.87,3.768,3.768,0,0,0-.683-2.119,7.673,7.673,0,0,0-1.994-1.952l3.575,0,0-1.644-13.727.01Zm6.852,2.354a1.939,1.939,0,0,1,1.078.309,3.18,3.18,0,0,1,.833.785,4.073,4.073,0,0,1,.52,1.072,3.882,3.882,0,0,1,.192,1.19,4.162,4.162,0,0,1-.177,1.191,3.711,3.711,0,0,1-.531,1.1,2.777,2.777,0,0,1-.818.787,2.1,2.1,0,0,1-2.2,0,3.049,3.049,0,0,1-.833-.81,4.043,4.043,0,0,1-.508-3.43,3.812,3.812,0,0,1,.5-1.071,3.067,3.067,0,0,1,.833-.811A1.984,1.984,0,0,1,272.312,331.565Z" fill="#004485"/>
    <g id="그룹_5" data-name="그룹 5">
      <path id="패스_27" data-name="패스 27" d="M267.765,353.5h1.286v2.7l2.314-2.7h1.581l-2.637,2.962,2.747,3.322h-1.681l-2.306-2.917h-.018v2.917h-1.286Z" fill="#004485"/>
      <path id="패스_28" data-name="패스 28" d="M277.956,353.394a3.252,3.252,0,1,1-3.141,3.231A2.966,2.966,0,0,1,277.956,353.394Zm0,5.509c1.314,0,1.8-1.143,1.8-2.278,0-1.107-.524-2.241-1.8-2.241s-1.8,1.134-1.8,2.241C276.156,357.76,276.643,358.9,277.956,358.9Z" fill="#004485"/>
      <path id="패스_29" data-name="패스 29" d="M283.4,353.5h1.387c1.378,0,3.022-.045,3.022,1.7a1.447,1.447,0,0,1-1.322,1.458v.019c.349.026.551.369.679.647l1.029,2.458H286.76l-.771-1.963c-.184-.467-.35-.647-.892-.647h-.413v2.61H283.4Zm1.286,2.683h.423c.633,0,1.359-.09,1.359-.873,0-.756-.716-.82-1.359-.82h-.423Z" fill="#004485"/>
      <path id="패스_30" data-name="패스 30" d="M290.357,353.5h3.784v.99h-2.5v1.549h2.287v.99h-2.287V358.8h2.516v.99h-3.8Z" fill="#004485"/>
      <path id="패스_31" data-name="패스 31" d="M298.537,353.5h1.452l2.516,6.284h-1.424l-.55-1.44h-2.6l-.561,1.44h-1.332Zm.707,1.261h-.018l-.928,2.593h1.874Z" fill="#004485"/>
      <path id="패스_32" data-name="패스 32" d="M311.188,353.394a3.252,3.252,0,1,1-3.142,3.231A2.965,2.965,0,0,1,311.188,353.394Zm0,5.509c1.313,0,1.8-1.143,1.8-2.278,0-1.107-.523-2.241-1.8-2.241s-1.8,1.134-1.8,2.241C309.387,357.76,309.874,358.9,311.188,358.9Z" fill="#004485"/>
      <path id="패스_33" data-name="패스 33" d="M321.4,359.7a6.616,6.616,0,0,1-1.459.2c-2.076,0-3.519-1.018-3.519-3.143,0-2.151,1.341-3.357,3.519-3.357a4.339,4.339,0,0,1,1.451.26l-.092,1.063a2.683,2.683,0,0,0-1.388-.333,2.117,2.117,0,0,0-2.149,2.277,2.09,2.09,0,0,0,2.178,2.242,3.635,3.635,0,0,0,1.4-.261Z" fill="#004485"/>
      <path id="패스_34" data-name="패스 34" d="M323.589,353.5h3.783v.99h-2.5v1.549h2.287v.99h-2.287V358.8h2.517v.99h-3.8Z" fill="#004485"/>
      <path id="패스_35" data-name="패스 35" d="M331.768,353.5h1.451l2.518,6.284h-1.424l-.551-1.44h-2.6l-.561,1.44H329.27Zm.707,1.261h-.017l-.928,2.593H333.4Z" fill="#004485"/>
      <path id="패스_36" data-name="패스 36" d="M337.735,353.5h1.58l2.444,4.7h.017v-4.7h1.231v6.284h-1.571l-2.453-4.7h-.017v4.7h-1.231Z" fill="#004485"/>
      <path id="패스_37" data-name="패스 37" d="M349.458,353.5h3.564v.99h-2.277v1.549h2.168v.99h-2.168v2.755h-1.287Z" fill="#004485"/>
      <path id="패스_38" data-name="패스 38" d="M358.116,353.394a3.252,3.252,0,1,1-3.141,3.231A2.967,2.967,0,0,1,358.116,353.394Zm0,5.509c1.314,0,1.8-1.143,1.8-2.278,0-1.107-.524-2.241-1.8-2.241s-1.8,1.134-1.8,2.241C356.315,357.76,356.8,358.9,358.116,358.9Z" fill="#004485"/>
      <path id="패스_39" data-name="패스 39" d="M363.622,353.5h1.287v3.628c0,1.072.348,1.774,1.332,1.774s1.332-.7,1.332-1.774V353.5h1.285v4.016c0,1.683-.974,2.377-2.617,2.377s-2.619-.694-2.619-2.377Z" fill="#004485"/>
      <path id="패스_40" data-name="패스 40" d="M371.471,353.5h1.581l2.443,4.7h.017v-4.7h1.231v6.284h-1.57l-2.454-4.7H372.7v4.7h-1.231Z" fill="#004485"/>
      <path id="패스_41" data-name="패스 41" d="M379.4,353.5h1.754c1.965,0,3.7.648,3.7,3.143s-1.736,3.141-3.7,3.141H379.4Zm1.285,5.294h.717a2.152,2.152,0,0,0,0-4.3h-.717Z" fill="#004485"/>
      <path id="패스_42" data-name="패스 42" d="M389.106,353.5h1.451l2.518,6.284h-1.424l-.551-1.44h-2.6l-.561,1.44h-1.332Zm.707,1.261H389.8l-.928,2.593h1.873Z" fill="#004485"/>
      <path id="패스_43" data-name="패스 43" d="M395.569,354.491h-1.838v-.99h4.961v.99h-1.838v5.294h-1.285Z" fill="#004485"/>
      <path id="패스_44" data-name="패스 44" d="M400.635,353.5h1.288v6.284h-1.288Z" fill="#004485"/>
      <path id="패스_45" data-name="패스 45" d="M407.366,353.394a3.252,3.252,0,1,1-3.141,3.231A2.967,2.967,0,0,1,407.366,353.394Zm0,5.509c1.314,0,1.8-1.143,1.8-2.278,0-1.107-.524-2.241-1.8-2.241s-1.8,1.134-1.8,2.241C405.565,357.76,406.053,358.9,407.366,358.9Z" fill="#004485"/>
      <path id="패스_46" data-name="패스 46" d="M412.854,353.5h1.58l2.444,4.7h.017v-4.7h1.231v6.284h-1.571l-2.453-4.7h-.017v4.7h-1.231Z" fill="#004485"/>
    </g>
  </g>
</svg>
