<svg xmlns="http://www.w3.org/2000/svg" width="35.713" height="25" viewBox="0 0 35.713 25">
  <g id="sns_youtube" transform="translate(-4820 -5249.52)" opacity="0.8">
    <path id="패스_71" data-name="패스 71" d="M166.577,237.154A4.474,4.474,0,0,0,163.42,234c-2.786-.747-13.953-.747-13.953-.747s-11.169,0-13.953.747a4.476,4.476,0,0,0-3.159,3.157c-.745,2.786-.745,8.6-.745,8.6s0,5.811.745,8.6a4.47,4.47,0,0,0,3.159,3.157c2.786.746,13.953.746,13.953.746s11.167,0,13.953-.746a4.474,4.474,0,0,0,3.157-3.157c.745-2.786.745-8.6.745-8.6S167.323,239.94,166.577,237.154ZM145.9,251.107V240.393l9.278,5.358Z" transform="translate(4688.39 5016.27)" fill="#fff"/>
  </g>
</svg>
