<svg xmlns="http://www.w3.org/2000/svg" width="25.014" height="25" viewBox="0 0 25.014 25">
  <g id="sns_insta" transform="translate(15.7 225)" opacity="0.8">
    <g id="그룹_13" data-name="그룹 13" transform="translate(-15.7 -225)">
      <path id="SVGID_1_" d="M13.625,9.085a8.993,8.993,0,0,0-3.038.582,6.3,6.3,0,0,0-2.2,1.448A6,6,0,0,0,6.953,13.33a9.357,9.357,0,0,0-.582,3.038C6.314,17.7,6.3,18.128,6.3,21.521s.028,3.819.085,5.153A8.828,8.828,0,0,0,6.967,29.7a6.227,6.227,0,0,0,1.448,2.215,6,6,0,0,0,2.215,1.434,9.357,9.357,0,0,0,3.038.582c1.334.057,1.76.071,5.153.071s3.819-.014,5.153-.085a8.993,8.993,0,0,0,3.038-.582,6.227,6.227,0,0,0,2.215-1.448,6,6,0,0,0,1.434-2.215,9.357,9.357,0,0,0,.582-3.038c.057-1.334.071-1.76.071-5.153s-.014-3.819-.085-5.153a8.993,8.993,0,0,0-.582-3.038A6.227,6.227,0,0,0,29.2,11.073a6,6,0,0,0-2.215-1.434,9.357,9.357,0,0,0-3.038-.582C22.6,9.014,22.172,9,18.779,9s-3.819.028-5.153.085m.142,22.587a6.932,6.932,0,0,1-2.314-.426,4.175,4.175,0,0,1-2.371-2.371,6.918,6.918,0,0,1-.44-2.314c-.057-1.32-.071-1.718-.085-5.054s0-3.734.057-5.054a6.932,6.932,0,0,1,.426-2.314,4.175,4.175,0,0,1,2.371-2.371,7.309,7.309,0,0,1,2.314-.44c1.32-.057,1.718-.071,5.04-.085s3.734,0,5.054.057a6.932,6.932,0,0,1,2.314.426,3.758,3.758,0,0,1,1.434.937A3.869,3.869,0,0,1,28.5,14.1a7.309,7.309,0,0,1,.44,2.314c.057,1.32.071,1.718.085,5.04s0,3.734-.057,5.054a7.127,7.127,0,0,1-.426,2.328A4.175,4.175,0,0,1,26.175,31.2a7.309,7.309,0,0,1-2.314.44c-1.32.057-1.718.071-5.054.085s-3.719,0-5.04-.057M23.96,14.821a1.5,1.5,0,1,0,1.491-1.5,1.5,1.5,0,0,0-1.491,1.5M12.39,21.507a6.417,6.417,0,1,0,6.4-6.431,6.41,6.41,0,0,0-6.4,6.431m2.243,0a4.167,4.167,0,1,1,4.174,4.16,4.178,4.178,0,0,1-4.174-4.16" transform="translate(-6.3 -9)" fill="#fff"/>
    </g>
  </g>
</svg>
