<svg xmlns="http://www.w3.org/2000/svg" width="26.953" height="25" viewBox="0 0 26.953 25">
  <g id="sns_blog" transform="translate(-4940.72 -5496.14)" opacity="0.8">
    <g id="그룹_12" data-name="그룹 12" transform="translate(4940.72 5496.14)">
      <path id="패스_67" data-name="패스 67" d="M650.545,314.51a1.266,1.266,0,1,0,1.268,1.265A1.265,1.265,0,0,0,650.545,314.51Z" transform="translate(-644.46 -305.555)" fill="#fff"/>
      <path id="패스_68" data-name="패스 68" d="M698.414,314a1.364,1.364,0,1,0,1.364,1.364A1.364,1.364,0,0,0,698.414,314Z" transform="translate(-683.411 -305.162)" fill="#fff"/>
      <path id="패스_69" data-name="패스 69" d="M646.607,266.06H626.866a3.606,3.606,0,0,0-3.606,3.606v11.716a3.606,3.606,0,0,0,3.606,3.606h6.972l2.372,5.588s.164.484.558.484h0c.4,0,.558-.484.558-.484l2.372-5.588h6.909a3.606,3.606,0,0,0,3.606-3.606V269.666A3.606,3.606,0,0,0,646.607,266.06Zm-14.881,10.355a2.232,2.232,0,0,1-2.226,2.2,1.851,1.851,0,0,1-1.34-.567v.386h-1.613v-6.65c-.006,0-.008,0,0,0v0c.1.015,1.613,0,1.613,0v2.544c.379-.647,1.475-.636,1.475-.636A2.361,2.361,0,0,1,631.727,276.415Zm2.841-2.521v4.554h-1.578V273.94c0-.613-.762-.784-.762-.784v-1.59A2.184,2.184,0,0,1,634.567,273.895Zm3.741,4.727a2.443,2.443,0,1,1,2.646-2.435A2.547,2.547,0,0,1,638.308,278.622Zm8.647,0a2.252,2.252,0,0,1-2.328,2.313h-.716v-1.5h.432s.988.091.977-1.432c0,0-.192.617-1.578.617a2.08,2.08,0,0,1-1.965-2.058v-.727a2.244,2.244,0,0,1,2.2-2.146,1.607,1.607,0,0,1,1.375.613v-.487h1.6Z" transform="translate(-623.26 -266.06)" fill="#fff"/>
      <path id="패스_70" data-name="패스 70" d="M730.743,314.12a1.333,1.333,0,1,0,1.333,1.333A1.334,1.334,0,0,0,730.743,314.12Z" transform="translate(-709.776 -305.253)" fill="#fff"/>
    </g>
  </g>
</svg>
